<?xml version="1.0" encoding="utf-8" standalone="no"?>
<!DOCTYPE svg PUBLIC "-//W3C//DTD SVG 1.1//EN"
  "http://www.w3.org/Graphics/SVG/1.1/DTD/svg11.dtd">
<svg xmlns:xlink="http://www.w3.org/1999/xlink" width="720pt" height="432pt" viewBox="0 0 720 432" xmlns="http://www.w3.org/2000/svg" version="1.1">
 <metadata>
  <rdf:RDF xmlns:dc="http://purl.org/dc/elements/1.1/" xmlns:cc="http://creativecommons.org/ns#" xmlns:rdf="http://www.w3.org/1999/02/22-rdf-syntax-ns#">
   <cc:Work>
    <dc:type rdf:resource="http://purl.org/dc/dcmitype/StillImage"/>
    <dc:date>2024-02-16T10:23:15.881073</dc:date>
    <dc:format>image/svg+xml</dc:format>
    <dc:creator>
     <cc:Agent>
      <dc:title>Matplotlib v3.7.2, https://matplotlib.org/</dc:title>
     </cc:Agent>
    </dc:creator>
   </cc:Work>
  </rdf:RDF>
 </metadata>
 <defs>
  <style type="text/css">*{stroke-linejoin: round; stroke-linecap: butt}</style>
 </defs>
 <g id="figure_1">
  <g id="patch_1">
   <path d="M 0 432 
L 720 432 
L 720 0 
L 0 0 
z
" style="fill: #ffffff"/>
  </g>
  <g id="axes_1">
   <g id="patch_2">
    <path d="M 54.270934 312.488257 
L 359.405467 312.488257 
L 359.405467 25.44 
L 54.270934 25.44 
z
" style="fill: #ffffff"/>
   </g>
   <g id="patch_3">
    <path d="M 68.140685 312.488257 
L 79.300255 312.488257 
L 79.300255 175.798611 
L 68.140685 175.798611 
z
" clip-path="url(#p9d04292332)" style="fill: #1f77b4"/>
   </g>
   <g id="patch_4">
    <path d="M 100.025171 312.488257 
L 111.184742 312.488257 
L 111.184742 121.122752 
L 100.025171 121.122752 
z
" clip-path="url(#p9d04292332)" style="fill: #1f77b4"/>
   </g>
   <g id="patch_5">
    <path d="M 131.909658 312.488257 
L 143.069228 312.488257 
L 143.069228 175.798611 
L 131.909658 175.798611 
z
" clip-path="url(#p9d04292332)" style="fill: #1f77b4"/>
   </g>
   <g id="patch_6">
    <path d="M 163.794144 312.488257 
L 174.953714 312.488257 
L 174.953714 203.13654 
L 163.794144 203.13654 
z
" clip-path="url(#p9d04292332)" style="fill: #1f77b4"/>
   </g>
   <g id="patch_7">
    <path d="M 195.67863 312.488257 
L 206.8382 312.488257 
L 206.8382 203.13654 
L 195.67863 203.13654 
z
" clip-path="url(#p9d04292332)" style="fill: #1f77b4"/>
   </g>
   <g id="patch_8">
    <path d="M 227.563116 312.488257 
L 238.722687 312.488257 
L 238.722687 203.13654 
L 227.563116 203.13654 
z
" clip-path="url(#p9d04292332)" style="fill: #1f77b4"/>
   </g>
   <g id="patch_9">
    <path d="M 259.447603 312.488257 
L 270.607173 312.488257 
L 270.607173 39.108965 
L 259.447603 39.108965 
z
" clip-path="url(#p9d04292332)" style="fill: #1f77b4"/>
   </g>
   <g id="patch_10">
    <path d="M 291.332089 312.488257 
L 302.491659 312.488257 
L 302.491659 175.798611 
L 291.332089 175.798611 
z
" clip-path="url(#p9d04292332)" style="fill: #1f77b4"/>
   </g>
   <g id="patch_11">
    <path d="M 323.216575 312.488257 
L 334.376145 312.488257 
L 334.376145 203.13654 
L 323.216575 203.13654 
z
" clip-path="url(#p9d04292332)" style="fill: #1f77b4"/>
   </g>
   <g id="patch_12">
    <path d="M 79.300255 312.488257 
L 90.459826 312.488257 
L 90.459826 66.446894 
L 79.300255 66.446894 
z
" clip-path="url(#p9d04292332)" style="fill: #ff7f0e"/>
   </g>
   <g id="patch_13">
    <path d="M 111.184742 312.488257 
L 122.344312 312.488257 
L 122.344312 93.784823 
L 111.184742 93.784823 
z
" clip-path="url(#p9d04292332)" style="fill: #ff7f0e"/>
   </g>
   <g id="patch_14">
    <path d="M 143.069228 312.488257 
L 154.228798 312.488257 
L 154.228798 66.446894 
L 143.069228 66.446894 
z
" clip-path="url(#p9d04292332)" style="fill: #ff7f0e"/>
   </g>
   <g id="patch_15">
    <path d="M 174.953714 312.488257 
L 186.113284 312.488257 
L 186.113284 93.784823 
L 174.953714 93.784823 
z
" clip-path="url(#p9d04292332)" style="fill: #ff7f0e"/>
   </g>
   <g id="patch_16">
    <path d="M 206.8382 312.488257 
L 217.99777 312.488257 
L 217.99777 93.784823 
L 206.8382 93.784823 
z
" clip-path="url(#p9d04292332)" style="fill: #ff7f0e"/>
   </g>
   <g id="patch_17">
    <path d="M 238.722687 312.488257 
L 249.882257 312.488257 
L 249.882257 93.784823 
L 238.722687 93.784823 
z
" clip-path="url(#p9d04292332)" style="fill: #ff7f0e"/>
   </g>
   <g id="patch_18">
    <path d="M 270.607173 312.488257 
L 281.766743 312.488257 
L 281.766743 93.784823 
L 270.607173 93.784823 
z
" clip-path="url(#p9d04292332)" style="fill: #ff7f0e"/>
   </g>
   <g id="patch_19">
    <path d="M 302.491659 312.488257 
L 313.651229 312.488257 
L 313.651229 93.784823 
L 302.491659 93.784823 
z
" clip-path="url(#p9d04292332)" style="fill: #ff7f0e"/>
   </g>
   <g id="patch_20">
    <path d="M 334.376145 312.488257 
L 345.535715 312.488257 
L 345.535715 66.446894 
L 334.376145 66.446894 
z
" clip-path="url(#p9d04292332)" style="fill: #ff7f0e"/>
   </g>
   <g id="matplotlib.axis_1">
    <g id="xtick_1">
     <g id="line2d_1">
      <defs>
       <path id="m1155d01819" d="M 0 0 
L 0 3.5 
" style="stroke: #000000; stroke-width: 0.8"/>
      </defs>
      <g>
       <use xlink:href="#m1155d01819" x="79.300255" y="312.488257" style="stroke: #000000; stroke-width: 0.8"/>
      </g>
     </g>
     <g id="text_1">
      <!-- Microsoft JARVIS -->
      <g transform="translate(20.67116 382.019698) rotate(-45) scale(0.1 -0.1)">
       <defs>
        <path id="DejaVuSans-4d" d="M 628 4666 
L 1569 4666 
L 2759 1491 
L 3956 4666 
L 4897 4666 
L 4897 0 
L 4281 0 
L 4281 4097 
L 3078 897 
L 2444 897 
L 1241 4097 
L 1241 0 
L 628 0 
L 628 4666 
z
" transform="scale(0.015625)"/>
        <path id="DejaVuSans-69" d="M 603 3500 
L 1178 3500 
L 1178 0 
L 603 0 
L 603 3500 
z
M 603 4863 
L 1178 4863 
L 1178 4134 
L 603 4134 
L 603 4863 
z
" transform="scale(0.015625)"/>
        <path id="DejaVuSans-63" d="M 3122 3366 
L 3122 2828 
Q 2878 2963 2633 3030 
Q 2388 3097 2138 3097 
Q 1578 3097 1268 2742 
Q 959 2388 959 1747 
Q 959 1106 1268 751 
Q 1578 397 2138 397 
Q 2388 397 2633 464 
Q 2878 531 3122 666 
L 3122 134 
Q 2881 22 2623 -34 
Q 2366 -91 2075 -91 
Q 1284 -91 818 406 
Q 353 903 353 1747 
Q 353 2603 823 3093 
Q 1294 3584 2113 3584 
Q 2378 3584 2631 3529 
Q 2884 3475 3122 3366 
z
" transform="scale(0.015625)"/>
        <path id="DejaVuSans-72" d="M 2631 2963 
Q 2534 3019 2420 3045 
Q 2306 3072 2169 3072 
Q 1681 3072 1420 2755 
Q 1159 2438 1159 1844 
L 1159 0 
L 581 0 
L 581 3500 
L 1159 3500 
L 1159 2956 
Q 1341 3275 1631 3429 
Q 1922 3584 2338 3584 
Q 2397 3584 2469 3576 
Q 2541 3569 2628 3553 
L 2631 2963 
z
" transform="scale(0.015625)"/>
        <path id="DejaVuSans-6f" d="M 1959 3097 
Q 1497 3097 1228 2736 
Q 959 2375 959 1747 
Q 959 1119 1226 758 
Q 1494 397 1959 397 
Q 2419 397 2687 759 
Q 2956 1122 2956 1747 
Q 2956 2369 2687 2733 
Q 2419 3097 1959 3097 
z
M 1959 3584 
Q 2709 3584 3137 3096 
Q 3566 2609 3566 1747 
Q 3566 888 3137 398 
Q 2709 -91 1959 -91 
Q 1206 -91 779 398 
Q 353 888 353 1747 
Q 353 2609 779 3096 
Q 1206 3584 1959 3584 
z
" transform="scale(0.015625)"/>
        <path id="DejaVuSans-73" d="M 2834 3397 
L 2834 2853 
Q 2591 2978 2328 3040 
Q 2066 3103 1784 3103 
Q 1356 3103 1142 2972 
Q 928 2841 928 2578 
Q 928 2378 1081 2264 
Q 1234 2150 1697 2047 
L 1894 2003 
Q 2506 1872 2764 1633 
Q 3022 1394 3022 966 
Q 3022 478 2636 193 
Q 2250 -91 1575 -91 
Q 1294 -91 989 -36 
Q 684 19 347 128 
L 347 722 
Q 666 556 975 473 
Q 1284 391 1588 391 
Q 1994 391 2212 530 
Q 2431 669 2431 922 
Q 2431 1156 2273 1281 
Q 2116 1406 1581 1522 
L 1381 1569 
Q 847 1681 609 1914 
Q 372 2147 372 2553 
Q 372 3047 722 3315 
Q 1072 3584 1716 3584 
Q 2034 3584 2315 3537 
Q 2597 3491 2834 3397 
z
" transform="scale(0.015625)"/>
        <path id="DejaVuSans-66" d="M 2375 4863 
L 2375 4384 
L 1825 4384 
Q 1516 4384 1395 4259 
Q 1275 4134 1275 3809 
L 1275 3500 
L 2222 3500 
L 2222 3053 
L 1275 3053 
L 1275 0 
L 697 0 
L 697 3053 
L 147 3053 
L 147 3500 
L 697 3500 
L 697 3744 
Q 697 4328 969 4595 
Q 1241 4863 1831 4863 
L 2375 4863 
z
" transform="scale(0.015625)"/>
        <path id="DejaVuSans-74" d="M 1172 4494 
L 1172 3500 
L 2356 3500 
L 2356 3053 
L 1172 3053 
L 1172 1153 
Q 1172 725 1289 603 
Q 1406 481 1766 481 
L 2356 481 
L 2356 0 
L 1766 0 
Q 1100 0 847 248 
Q 594 497 594 1153 
L 594 3053 
L 172 3053 
L 172 3500 
L 594 3500 
L 594 4494 
L 1172 4494 
z
" transform="scale(0.015625)"/>
        <path id="DejaVuSans-20" transform="scale(0.015625)"/>
        <path id="DejaVuSans-4a" d="M 628 4666 
L 1259 4666 
L 1259 325 
Q 1259 -519 939 -900 
Q 619 -1281 -91 -1281 
L -331 -1281 
L -331 -750 
L -134 -750 
Q 284 -750 456 -515 
Q 628 -281 628 325 
L 628 4666 
z
" transform="scale(0.015625)"/>
        <path id="DejaVuSans-41" d="M 2188 4044 
L 1331 1722 
L 3047 1722 
L 2188 4044 
z
M 1831 4666 
L 2547 4666 
L 4325 0 
L 3669 0 
L 3244 1197 
L 1141 1197 
L 716 0 
L 50 0 
L 1831 4666 
z
" transform="scale(0.015625)"/>
        <path id="DejaVuSans-52" d="M 2841 2188 
Q 3044 2119 3236 1894 
Q 3428 1669 3622 1275 
L 4263 0 
L 3584 0 
L 2988 1197 
Q 2756 1666 2539 1819 
Q 2322 1972 1947 1972 
L 1259 1972 
L 1259 0 
L 628 0 
L 628 4666 
L 2053 4666 
Q 2853 4666 3247 4331 
Q 3641 3997 3641 3322 
Q 3641 2881 3436 2590 
Q 3231 2300 2841 2188 
z
M 1259 4147 
L 1259 2491 
L 2053 2491 
Q 2509 2491 2742 2702 
Q 2975 2913 2975 3322 
Q 2975 3731 2742 3939 
Q 2509 4147 2053 4147 
L 1259 4147 
z
" transform="scale(0.015625)"/>
        <path id="DejaVuSans-56" d="M 1831 0 
L 50 4666 
L 709 4666 
L 2188 738 
L 3669 4666 
L 4325 4666 
L 2547 0 
L 1831 0 
z
" transform="scale(0.015625)"/>
        <path id="DejaVuSans-49" d="M 628 4666 
L 1259 4666 
L 1259 0 
L 628 0 
L 628 4666 
z
" transform="scale(0.015625)"/>
        <path id="DejaVuSans-53" d="M 3425 4513 
L 3425 3897 
Q 3066 4069 2747 4153 
Q 2428 4238 2131 4238 
Q 1616 4238 1336 4038 
Q 1056 3838 1056 3469 
Q 1056 3159 1242 3001 
Q 1428 2844 1947 2747 
L 2328 2669 
Q 3034 2534 3370 2195 
Q 3706 1856 3706 1288 
Q 3706 609 3251 259 
Q 2797 -91 1919 -91 
Q 1588 -91 1214 -16 
Q 841 59 441 206 
L 441 856 
Q 825 641 1194 531 
Q 1563 422 1919 422 
Q 2459 422 2753 634 
Q 3047 847 3047 1241 
Q 3047 1584 2836 1778 
Q 2625 1972 2144 2069 
L 1759 2144 
Q 1053 2284 737 2584 
Q 422 2884 422 3419 
Q 422 4038 858 4394 
Q 1294 4750 2059 4750 
Q 2388 4750 2728 4690 
Q 3069 4631 3425 4513 
z
" transform="scale(0.015625)"/>
       </defs>
       <use xlink:href="#DejaVuSans-4d"/>
       <use xlink:href="#DejaVuSans-69" x="86.279297"/>
       <use xlink:href="#DejaVuSans-63" x="114.0625"/>
       <use xlink:href="#DejaVuSans-72" x="169.042969"/>
       <use xlink:href="#DejaVuSans-6f" x="207.90625"/>
       <use xlink:href="#DejaVuSans-73" x="269.087891"/>
       <use xlink:href="#DejaVuSans-6f" x="321.1875"/>
       <use xlink:href="#DejaVuSans-66" x="382.369141"/>
       <use xlink:href="#DejaVuSans-74" x="415.824219"/>
       <use xlink:href="#DejaVuSans-20" x="455.033203"/>
       <use xlink:href="#DejaVuSans-4a" x="486.820312"/>
       <use xlink:href="#DejaVuSans-41" x="514.5625"/>
       <use xlink:href="#DejaVuSans-52" x="582.970703"/>
       <use xlink:href="#DejaVuSans-56" x="646.953125"/>
       <use xlink:href="#DejaVuSans-49" x="715.361328"/>
       <use xlink:href="#DejaVuSans-53" x="744.853516"/>
      </g>
     </g>
    </g>
    <g id="xtick_2">
     <g id="line2d_2">
      <g>
       <use xlink:href="#m1155d01819" x="111.184742" y="312.488257" style="stroke: #000000; stroke-width: 0.8"/>
      </g>
     </g>
     <g id="text_2">
      <!-- Facebook React -->
      <g transform="translate(54.296896 380.278448) rotate(-45) scale(0.1 -0.1)">
       <defs>
        <path id="DejaVuSans-46" d="M 628 4666 
L 3309 4666 
L 3309 4134 
L 1259 4134 
L 1259 2759 
L 3109 2759 
L 3109 2228 
L 1259 2228 
L 1259 0 
L 628 0 
L 628 4666 
z
" transform="scale(0.015625)"/>
        <path id="DejaVuSans-61" d="M 2194 1759 
Q 1497 1759 1228 1600 
Q 959 1441 959 1056 
Q 959 750 1161 570 
Q 1363 391 1709 391 
Q 2188 391 2477 730 
Q 2766 1069 2766 1631 
L 2766 1759 
L 2194 1759 
z
M 3341 1997 
L 3341 0 
L 2766 0 
L 2766 531 
Q 2569 213 2275 61 
Q 1981 -91 1556 -91 
Q 1019 -91 701 211 
Q 384 513 384 1019 
Q 384 1609 779 1909 
Q 1175 2209 1959 2209 
L 2766 2209 
L 2766 2266 
Q 2766 2663 2505 2880 
Q 2244 3097 1772 3097 
Q 1472 3097 1187 3025 
Q 903 2953 641 2809 
L 641 3341 
Q 956 3463 1253 3523 
Q 1550 3584 1831 3584 
Q 2591 3584 2966 3190 
Q 3341 2797 3341 1997 
z
" transform="scale(0.015625)"/>
        <path id="DejaVuSans-65" d="M 3597 1894 
L 3597 1613 
L 953 1613 
Q 991 1019 1311 708 
Q 1631 397 2203 397 
Q 2534 397 2845 478 
Q 3156 559 3463 722 
L 3463 178 
Q 3153 47 2828 -22 
Q 2503 -91 2169 -91 
Q 1331 -91 842 396 
Q 353 884 353 1716 
Q 353 2575 817 3079 
Q 1281 3584 2069 3584 
Q 2775 3584 3186 3129 
Q 3597 2675 3597 1894 
z
M 3022 2063 
Q 3016 2534 2758 2815 
Q 2500 3097 2075 3097 
Q 1594 3097 1305 2825 
Q 1016 2553 972 2059 
L 3022 2063 
z
" transform="scale(0.015625)"/>
        <path id="DejaVuSans-62" d="M 3116 1747 
Q 3116 2381 2855 2742 
Q 2594 3103 2138 3103 
Q 1681 3103 1420 2742 
Q 1159 2381 1159 1747 
Q 1159 1113 1420 752 
Q 1681 391 2138 391 
Q 2594 391 2855 752 
Q 3116 1113 3116 1747 
z
M 1159 2969 
Q 1341 3281 1617 3432 
Q 1894 3584 2278 3584 
Q 2916 3584 3314 3078 
Q 3713 2572 3713 1747 
Q 3713 922 3314 415 
Q 2916 -91 2278 -91 
Q 1894 -91 1617 61 
Q 1341 213 1159 525 
L 1159 0 
L 581 0 
L 581 4863 
L 1159 4863 
L 1159 2969 
z
" transform="scale(0.015625)"/>
        <path id="DejaVuSans-6b" d="M 581 4863 
L 1159 4863 
L 1159 1991 
L 2875 3500 
L 3609 3500 
L 1753 1863 
L 3688 0 
L 2938 0 
L 1159 1709 
L 1159 0 
L 581 0 
L 581 4863 
z
" transform="scale(0.015625)"/>
       </defs>
       <use xlink:href="#DejaVuSans-46"/>
       <use xlink:href="#DejaVuSans-61" x="48.394531"/>
       <use xlink:href="#DejaVuSans-63" x="109.673828"/>
       <use xlink:href="#DejaVuSans-65" x="164.654297"/>
       <use xlink:href="#DejaVuSans-62" x="226.177734"/>
       <use xlink:href="#DejaVuSans-6f" x="289.654297"/>
       <use xlink:href="#DejaVuSans-6f" x="350.835938"/>
       <use xlink:href="#DejaVuSans-6b" x="412.017578"/>
       <use xlink:href="#DejaVuSans-20" x="469.927734"/>
       <use xlink:href="#DejaVuSans-52" x="501.714844"/>
       <use xlink:href="#DejaVuSans-65" x="566.697266"/>
       <use xlink:href="#DejaVuSans-61" x="628.220703"/>
       <use xlink:href="#DejaVuSans-63" x="689.5"/>
       <use xlink:href="#DejaVuSans-74" x="744.480469"/>
      </g>
     </g>
    </g>
    <g id="xtick_3">
     <g id="line2d_3">
      <g>
       <use xlink:href="#m1155d01819" x="143.069228" y="312.488257" style="stroke: #000000; stroke-width: 0.8"/>
      </g>
     </g>
     <g id="text_3">
      <!-- Audacity -->
      <g transform="translate(110.648382 355.811448) rotate(-45) scale(0.1 -0.1)">
       <defs>
        <path id="DejaVuSans-75" d="M 544 1381 
L 544 3500 
L 1119 3500 
L 1119 1403 
Q 1119 906 1312 657 
Q 1506 409 1894 409 
Q 2359 409 2629 706 
Q 2900 1003 2900 1516 
L 2900 3500 
L 3475 3500 
L 3475 0 
L 2900 0 
L 2900 538 
Q 2691 219 2414 64 
Q 2138 -91 1772 -91 
Q 1169 -91 856 284 
Q 544 659 544 1381 
z
M 1991 3584 
L 1991 3584 
z
" transform="scale(0.015625)"/>
        <path id="DejaVuSans-64" d="M 2906 2969 
L 2906 4863 
L 3481 4863 
L 3481 0 
L 2906 0 
L 2906 525 
Q 2725 213 2448 61 
Q 2172 -91 1784 -91 
Q 1150 -91 751 415 
Q 353 922 353 1747 
Q 353 2572 751 3078 
Q 1150 3584 1784 3584 
Q 2172 3584 2448 3432 
Q 2725 3281 2906 2969 
z
M 947 1747 
Q 947 1113 1208 752 
Q 1469 391 1925 391 
Q 2381 391 2643 752 
Q 2906 1113 2906 1747 
Q 2906 2381 2643 2742 
Q 2381 3103 1925 3103 
Q 1469 3103 1208 2742 
Q 947 2381 947 1747 
z
" transform="scale(0.015625)"/>
        <path id="DejaVuSans-79" d="M 2059 -325 
Q 1816 -950 1584 -1140 
Q 1353 -1331 966 -1331 
L 506 -1331 
L 506 -850 
L 844 -850 
Q 1081 -850 1212 -737 
Q 1344 -625 1503 -206 
L 1606 56 
L 191 3500 
L 800 3500 
L 1894 763 
L 2988 3500 
L 3597 3500 
L 2059 -325 
z
" transform="scale(0.015625)"/>
       </defs>
       <use xlink:href="#DejaVuSans-41"/>
       <use xlink:href="#DejaVuSans-75" x="68.408203"/>
       <use xlink:href="#DejaVuSans-64" x="131.787109"/>
       <use xlink:href="#DejaVuSans-61" x="195.263672"/>
       <use xlink:href="#DejaVuSans-63" x="256.542969"/>
       <use xlink:href="#DejaVuSans-69" x="311.523438"/>
       <use xlink:href="#DejaVuSans-74" x="339.306641"/>
       <use xlink:href="#DejaVuSans-79" x="378.515625"/>
      </g>
     </g>
    </g>
    <g id="xtick_4">
     <g id="line2d_4">
      <g>
       <use xlink:href="#m1155d01819" x="174.953714" y="312.488257" style="stroke: #000000; stroke-width: 0.8"/>
      </g>
     </g>
     <g id="text_4">
      <!-- Microsoft Calculator -->
      <g transform="translate(103.152545 395.191772) rotate(-45) scale(0.1 -0.1)">
       <defs>
        <path id="DejaVuSans-43" d="M 4122 4306 
L 4122 3641 
Q 3803 3938 3442 4084 
Q 3081 4231 2675 4231 
Q 1875 4231 1450 3742 
Q 1025 3253 1025 2328 
Q 1025 1406 1450 917 
Q 1875 428 2675 428 
Q 3081 428 3442 575 
Q 3803 722 4122 1019 
L 4122 359 
Q 3791 134 3420 21 
Q 3050 -91 2638 -91 
Q 1578 -91 968 557 
Q 359 1206 359 2328 
Q 359 3453 968 4101 
Q 1578 4750 2638 4750 
Q 3056 4750 3426 4639 
Q 3797 4528 4122 4306 
z
" transform="scale(0.015625)"/>
        <path id="DejaVuSans-6c" d="M 603 4863 
L 1178 4863 
L 1178 0 
L 603 0 
L 603 4863 
z
" transform="scale(0.015625)"/>
       </defs>
       <use xlink:href="#DejaVuSans-4d"/>
       <use xlink:href="#DejaVuSans-69" x="86.279297"/>
       <use xlink:href="#DejaVuSans-63" x="114.0625"/>
       <use xlink:href="#DejaVuSans-72" x="169.042969"/>
       <use xlink:href="#DejaVuSans-6f" x="207.90625"/>
       <use xlink:href="#DejaVuSans-73" x="269.087891"/>
       <use xlink:href="#DejaVuSans-6f" x="321.1875"/>
       <use xlink:href="#DejaVuSans-66" x="382.369141"/>
       <use xlink:href="#DejaVuSans-74" x="415.824219"/>
       <use xlink:href="#DejaVuSans-20" x="455.033203"/>
       <use xlink:href="#DejaVuSans-43" x="486.820312"/>
       <use xlink:href="#DejaVuSans-61" x="556.644531"/>
       <use xlink:href="#DejaVuSans-6c" x="617.923828"/>
       <use xlink:href="#DejaVuSans-63" x="645.707031"/>
       <use xlink:href="#DejaVuSans-75" x="700.6875"/>
       <use xlink:href="#DejaVuSans-6c" x="764.066406"/>
       <use xlink:href="#DejaVuSans-61" x="791.849609"/>
       <use xlink:href="#DejaVuSans-74" x="853.128906"/>
       <use xlink:href="#DejaVuSans-6f" x="892.337891"/>
       <use xlink:href="#DejaVuSans-72" x="953.519531"/>
      </g>
     </g>
    </g>
    <g id="xtick_5">
     <g id="line2d_5">
      <g>
       <use xlink:href="#m1155d01819" x="206.8382" y="312.488257" style="stroke: #000000; stroke-width: 0.8"/>
      </g>
     </g>
     <g id="text_5">
      <!-- Null Array AutoSploit -->
      <g transform="translate(131.70479 398.524012) rotate(-45) scale(0.1 -0.1)">
       <defs>
        <path id="DejaVuSans-4e" d="M 628 4666 
L 1478 4666 
L 3547 763 
L 3547 4666 
L 4159 4666 
L 4159 0 
L 3309 0 
L 1241 3903 
L 1241 0 
L 628 0 
L 628 4666 
z
" transform="scale(0.015625)"/>
        <path id="DejaVuSans-70" d="M 1159 525 
L 1159 -1331 
L 581 -1331 
L 581 3500 
L 1159 3500 
L 1159 2969 
Q 1341 3281 1617 3432 
Q 1894 3584 2278 3584 
Q 2916 3584 3314 3078 
Q 3713 2572 3713 1747 
Q 3713 922 3314 415 
Q 2916 -91 2278 -91 
Q 1894 -91 1617 61 
Q 1341 213 1159 525 
z
M 3116 1747 
Q 3116 2381 2855 2742 
Q 2594 3103 2138 3103 
Q 1681 3103 1420 2742 
Q 1159 2381 1159 1747 
Q 1159 1113 1420 752 
Q 1681 391 2138 391 
Q 2594 391 2855 752 
Q 3116 1113 3116 1747 
z
" transform="scale(0.015625)"/>
       </defs>
       <use xlink:href="#DejaVuSans-4e"/>
       <use xlink:href="#DejaVuSans-75" x="74.804688"/>
       <use xlink:href="#DejaVuSans-6c" x="138.183594"/>
       <use xlink:href="#DejaVuSans-6c" x="165.966797"/>
       <use xlink:href="#DejaVuSans-20" x="193.75"/>
       <use xlink:href="#DejaVuSans-41" x="225.537109"/>
       <use xlink:href="#DejaVuSans-72" x="293.945312"/>
       <use xlink:href="#DejaVuSans-72" x="333.308594"/>
       <use xlink:href="#DejaVuSans-61" x="374.421875"/>
       <use xlink:href="#DejaVuSans-79" x="435.701172"/>
       <use xlink:href="#DejaVuSans-20" x="494.880859"/>
       <use xlink:href="#DejaVuSans-41" x="526.667969"/>
       <use xlink:href="#DejaVuSans-75" x="595.076172"/>
       <use xlink:href="#DejaVuSans-74" x="658.455078"/>
       <use xlink:href="#DejaVuSans-6f" x="697.664062"/>
       <use xlink:href="#DejaVuSans-53" x="758.845703"/>
       <use xlink:href="#DejaVuSans-70" x="822.322266"/>
       <use xlink:href="#DejaVuSans-6c" x="885.798828"/>
       <use xlink:href="#DejaVuSans-6f" x="913.582031"/>
       <use xlink:href="#DejaVuSans-69" x="974.763672"/>
       <use xlink:href="#DejaVuSans-74" x="1002.546875"/>
      </g>
     </g>
    </g>
    <g id="xtick_6">
     <g id="line2d_6">
      <g>
       <use xlink:href="#m1155d01819" x="238.722687" y="312.488257" style="stroke: #000000; stroke-width: 0.8"/>
      </g>
     </g>
     <g id="text_6">
      <!-- Null Array AutoSploit 2 -->
      <g transform="translate(156.843036 405.270253) rotate(-45) scale(0.1 -0.1)">
       <defs>
        <path id="DejaVuSans-32" d="M 1228 531 
L 3431 531 
L 3431 0 
L 469 0 
L 469 531 
Q 828 903 1448 1529 
Q 2069 2156 2228 2338 
Q 2531 2678 2651 2914 
Q 2772 3150 2772 3378 
Q 2772 3750 2511 3984 
Q 2250 4219 1831 4219 
Q 1534 4219 1204 4116 
Q 875 4013 500 3803 
L 500 4441 
Q 881 4594 1212 4672 
Q 1544 4750 1819 4750 
Q 2544 4750 2975 4387 
Q 3406 4025 3406 3419 
Q 3406 3131 3298 2873 
Q 3191 2616 2906 2266 
Q 2828 2175 2409 1742 
Q 1991 1309 1228 531 
z
" transform="scale(0.015625)"/>
       </defs>
       <use xlink:href="#DejaVuSans-4e"/>
       <use xlink:href="#DejaVuSans-75" x="74.804688"/>
       <use xlink:href="#DejaVuSans-6c" x="138.183594"/>
       <use xlink:href="#DejaVuSans-6c" x="165.966797"/>
       <use xlink:href="#DejaVuSans-20" x="193.75"/>
       <use xlink:href="#DejaVuSans-41" x="225.537109"/>
       <use xlink:href="#DejaVuSans-72" x="293.945312"/>
       <use xlink:href="#DejaVuSans-72" x="333.308594"/>
       <use xlink:href="#DejaVuSans-61" x="374.421875"/>
       <use xlink:href="#DejaVuSans-79" x="435.701172"/>
       <use xlink:href="#DejaVuSans-20" x="494.880859"/>
       <use xlink:href="#DejaVuSans-41" x="526.667969"/>
       <use xlink:href="#DejaVuSans-75" x="595.076172"/>
       <use xlink:href="#DejaVuSans-74" x="658.455078"/>
       <use xlink:href="#DejaVuSans-6f" x="697.664062"/>
       <use xlink:href="#DejaVuSans-53" x="758.845703"/>
       <use xlink:href="#DejaVuSans-70" x="822.322266"/>
       <use xlink:href="#DejaVuSans-6c" x="885.798828"/>
       <use xlink:href="#DejaVuSans-6f" x="913.582031"/>
       <use xlink:href="#DejaVuSans-69" x="974.763672"/>
       <use xlink:href="#DejaVuSans-74" x="1002.546875"/>
       <use xlink:href="#DejaVuSans-20" x="1041.755859"/>
       <use xlink:href="#DejaVuSans-32" x="1073.542969"/>
      </g>
     </g>
    </g>
    <g id="xtick_7">
     <g id="line2d_7">
      <g>
       <use xlink:href="#m1155d01819" x="270.607173" y="312.488257" style="stroke: #000000; stroke-width: 0.8"/>
      </g>
     </g>
     <g id="text_7">
      <!-- Microsoft PowerToys -->
      <g transform="translate(198.027081 395.970694) rotate(-45) scale(0.1 -0.1)">
       <defs>
        <path id="DejaVuSans-50" d="M 1259 4147 
L 1259 2394 
L 2053 2394 
Q 2494 2394 2734 2622 
Q 2975 2850 2975 3272 
Q 2975 3691 2734 3919 
Q 2494 4147 2053 4147 
L 1259 4147 
z
M 628 4666 
L 2053 4666 
Q 2838 4666 3239 4311 
Q 3641 3956 3641 3272 
Q 3641 2581 3239 2228 
Q 2838 1875 2053 1875 
L 1259 1875 
L 1259 0 
L 628 0 
L 628 4666 
z
" transform="scale(0.015625)"/>
        <path id="DejaVuSans-77" d="M 269 3500 
L 844 3500 
L 1563 769 
L 2278 3500 
L 2956 3500 
L 3675 769 
L 4391 3500 
L 4966 3500 
L 4050 0 
L 3372 0 
L 2619 2869 
L 1863 0 
L 1184 0 
L 269 3500 
z
" transform="scale(0.015625)"/>
        <path id="DejaVuSans-54" d="M -19 4666 
L 3928 4666 
L 3928 4134 
L 2272 4134 
L 2272 0 
L 1638 0 
L 1638 4134 
L -19 4134 
L -19 4666 
z
" transform="scale(0.015625)"/>
       </defs>
       <use xlink:href="#DejaVuSans-4d"/>
       <use xlink:href="#DejaVuSans-69" x="86.279297"/>
       <use xlink:href="#DejaVuSans-63" x="114.0625"/>
       <use xlink:href="#DejaVuSans-72" x="169.042969"/>
       <use xlink:href="#DejaVuSans-6f" x="207.90625"/>
       <use xlink:href="#DejaVuSans-73" x="269.087891"/>
       <use xlink:href="#DejaVuSans-6f" x="321.1875"/>
       <use xlink:href="#DejaVuSans-66" x="382.369141"/>
       <use xlink:href="#DejaVuSans-74" x="415.824219"/>
       <use xlink:href="#DejaVuSans-20" x="455.033203"/>
       <use xlink:href="#DejaVuSans-50" x="486.820312"/>
       <use xlink:href="#DejaVuSans-6f" x="543.498047"/>
       <use xlink:href="#DejaVuSans-77" x="604.679688"/>
       <use xlink:href="#DejaVuSans-65" x="686.466797"/>
       <use xlink:href="#DejaVuSans-72" x="747.990234"/>
       <use xlink:href="#DejaVuSans-54" x="789.103516"/>
       <use xlink:href="#DejaVuSans-6f" x="833.1875"/>
       <use xlink:href="#DejaVuSans-79" x="894.369141"/>
       <use xlink:href="#DejaVuSans-73" x="953.548828"/>
      </g>
     </g>
    </g>
    <g id="xtick_8">
     <g id="line2d_8">
      <g>
       <use xlink:href="#m1155d01819" x="302.491659" y="312.488257" style="stroke: #000000; stroke-width: 0.8"/>
      </g>
     </g>
     <g id="text_8">
      <!-- JJTech0130 pypush -->
      <g transform="translate(234.959647 390.922614) rotate(-45) scale(0.1 -0.1)">
       <defs>
        <path id="DejaVuSans-68" d="M 3513 2113 
L 3513 0 
L 2938 0 
L 2938 2094 
Q 2938 2591 2744 2837 
Q 2550 3084 2163 3084 
Q 1697 3084 1428 2787 
Q 1159 2491 1159 1978 
L 1159 0 
L 581 0 
L 581 4863 
L 1159 4863 
L 1159 2956 
Q 1366 3272 1645 3428 
Q 1925 3584 2291 3584 
Q 2894 3584 3203 3211 
Q 3513 2838 3513 2113 
z
" transform="scale(0.015625)"/>
        <path id="DejaVuSans-30" d="M 2034 4250 
Q 1547 4250 1301 3770 
Q 1056 3291 1056 2328 
Q 1056 1369 1301 889 
Q 1547 409 2034 409 
Q 2525 409 2770 889 
Q 3016 1369 3016 2328 
Q 3016 3291 2770 3770 
Q 2525 4250 2034 4250 
z
M 2034 4750 
Q 2819 4750 3233 4129 
Q 3647 3509 3647 2328 
Q 3647 1150 3233 529 
Q 2819 -91 2034 -91 
Q 1250 -91 836 529 
Q 422 1150 422 2328 
Q 422 3509 836 4129 
Q 1250 4750 2034 4750 
z
" transform="scale(0.015625)"/>
        <path id="DejaVuSans-31" d="M 794 531 
L 1825 531 
L 1825 4091 
L 703 3866 
L 703 4441 
L 1819 4666 
L 2450 4666 
L 2450 531 
L 3481 531 
L 3481 0 
L 794 0 
L 794 531 
z
" transform="scale(0.015625)"/>
        <path id="DejaVuSans-33" d="M 2597 2516 
Q 3050 2419 3304 2112 
Q 3559 1806 3559 1356 
Q 3559 666 3084 287 
Q 2609 -91 1734 -91 
Q 1441 -91 1130 -33 
Q 819 25 488 141 
L 488 750 
Q 750 597 1062 519 
Q 1375 441 1716 441 
Q 2309 441 2620 675 
Q 2931 909 2931 1356 
Q 2931 1769 2642 2001 
Q 2353 2234 1838 2234 
L 1294 2234 
L 1294 2753 
L 1863 2753 
Q 2328 2753 2575 2939 
Q 2822 3125 2822 3475 
Q 2822 3834 2567 4026 
Q 2313 4219 1838 4219 
Q 1578 4219 1281 4162 
Q 984 4106 628 3988 
L 628 4550 
Q 988 4650 1302 4700 
Q 1616 4750 1894 4750 
Q 2613 4750 3031 4423 
Q 3450 4097 3450 3541 
Q 3450 3153 3228 2886 
Q 3006 2619 2597 2516 
z
" transform="scale(0.015625)"/>
       </defs>
       <use xlink:href="#DejaVuSans-4a"/>
       <use xlink:href="#DejaVuSans-4a" x="29.492188"/>
       <use xlink:href="#DejaVuSans-54" x="58.984375"/>
       <use xlink:href="#DejaVuSans-65" x="103.068359"/>
       <use xlink:href="#DejaVuSans-63" x="164.591797"/>
       <use xlink:href="#DejaVuSans-68" x="219.572266"/>
       <use xlink:href="#DejaVuSans-30" x="282.951172"/>
       <use xlink:href="#DejaVuSans-31" x="346.574219"/>
       <use xlink:href="#DejaVuSans-33" x="410.197266"/>
       <use xlink:href="#DejaVuSans-30" x="473.820312"/>
       <use xlink:href="#DejaVuSans-20" x="537.443359"/>
       <use xlink:href="#DejaVuSans-70" x="569.230469"/>
       <use xlink:href="#DejaVuSans-79" x="632.707031"/>
       <use xlink:href="#DejaVuSans-70" x="691.886719"/>
       <use xlink:href="#DejaVuSans-75" x="755.363281"/>
       <use xlink:href="#DejaVuSans-73" x="818.742188"/>
       <use xlink:href="#DejaVuSans-68" x="870.841797"/>
      </g>
     </g>
    </g>
    <g id="xtick_9">
     <g id="line2d_9">
      <g>
       <use xlink:href="#m1155d01819" x="334.376145" y="312.488257" style="stroke: #000000; stroke-width: 0.8"/>
      </g>
     </g>
     <g id="text_9">
      <!-- CocoFruit AIROGIT -->
      <g transform="translate(268.214152 389.552595) rotate(-45) scale(0.1 -0.1)">
       <defs>
        <path id="DejaVuSans-4f" d="M 2522 4238 
Q 1834 4238 1429 3725 
Q 1025 3213 1025 2328 
Q 1025 1447 1429 934 
Q 1834 422 2522 422 
Q 3209 422 3611 934 
Q 4013 1447 4013 2328 
Q 4013 3213 3611 3725 
Q 3209 4238 2522 4238 
z
M 2522 4750 
Q 3503 4750 4090 4092 
Q 4678 3434 4678 2328 
Q 4678 1225 4090 567 
Q 3503 -91 2522 -91 
Q 1538 -91 948 565 
Q 359 1222 359 2328 
Q 359 3434 948 4092 
Q 1538 4750 2522 4750 
z
" transform="scale(0.015625)"/>
        <path id="DejaVuSans-47" d="M 3809 666 
L 3809 1919 
L 2778 1919 
L 2778 2438 
L 4434 2438 
L 4434 434 
Q 4069 175 3628 42 
Q 3188 -91 2688 -91 
Q 1594 -91 976 548 
Q 359 1188 359 2328 
Q 359 3472 976 4111 
Q 1594 4750 2688 4750 
Q 3144 4750 3555 4637 
Q 3966 4525 4313 4306 
L 4313 3634 
Q 3963 3931 3569 4081 
Q 3175 4231 2741 4231 
Q 1884 4231 1454 3753 
Q 1025 3275 1025 2328 
Q 1025 1384 1454 906 
Q 1884 428 2741 428 
Q 3075 428 3337 486 
Q 3600 544 3809 666 
z
" transform="scale(0.015625)"/>
       </defs>
       <use xlink:href="#DejaVuSans-43"/>
       <use xlink:href="#DejaVuSans-6f" x="69.824219"/>
       <use xlink:href="#DejaVuSans-63" x="131.005859"/>
       <use xlink:href="#DejaVuSans-6f" x="185.986328"/>
       <use xlink:href="#DejaVuSans-46" x="247.167969"/>
       <use xlink:href="#DejaVuSans-72" x="297.4375"/>
       <use xlink:href="#DejaVuSans-75" x="338.550781"/>
       <use xlink:href="#DejaVuSans-69" x="401.929688"/>
       <use xlink:href="#DejaVuSans-74" x="429.712891"/>
       <use xlink:href="#DejaVuSans-20" x="468.921875"/>
       <use xlink:href="#DejaVuSans-41" x="500.708984"/>
       <use xlink:href="#DejaVuSans-49" x="569.117188"/>
       <use xlink:href="#DejaVuSans-52" x="598.609375"/>
       <use xlink:href="#DejaVuSans-4f" x="668.091797"/>
       <use xlink:href="#DejaVuSans-47" x="746.802734"/>
       <use xlink:href="#DejaVuSans-49" x="824.292969"/>
       <use xlink:href="#DejaVuSans-54" x="853.785156"/>
      </g>
     </g>
    </g>
    <g id="text_10">
     <!-- Commit Repositories -->
     <g transform="translate(154.910075 418.339251) scale(0.1 -0.1)">
      <defs>
       <path id="DejaVuSans-6d" d="M 3328 2828 
Q 3544 3216 3844 3400 
Q 4144 3584 4550 3584 
Q 5097 3584 5394 3201 
Q 5691 2819 5691 2113 
L 5691 0 
L 5113 0 
L 5113 2094 
Q 5113 2597 4934 2840 
Q 4756 3084 4391 3084 
Q 3944 3084 3684 2787 
Q 3425 2491 3425 1978 
L 3425 0 
L 2847 0 
L 2847 2094 
Q 2847 2600 2669 2842 
Q 2491 3084 2119 3084 
Q 1678 3084 1418 2786 
Q 1159 2488 1159 1978 
L 1159 0 
L 581 0 
L 581 3500 
L 1159 3500 
L 1159 2956 
Q 1356 3278 1631 3431 
Q 1906 3584 2284 3584 
Q 2666 3584 2933 3390 
Q 3200 3197 3328 2828 
z
" transform="scale(0.015625)"/>
      </defs>
      <use xlink:href="#DejaVuSans-43"/>
      <use xlink:href="#DejaVuSans-6f" x="69.824219"/>
      <use xlink:href="#DejaVuSans-6d" x="131.005859"/>
      <use xlink:href="#DejaVuSans-6d" x="228.417969"/>
      <use xlink:href="#DejaVuSans-69" x="325.830078"/>
      <use xlink:href="#DejaVuSans-74" x="353.613281"/>
      <use xlink:href="#DejaVuSans-20" x="392.822266"/>
      <use xlink:href="#DejaVuSans-52" x="424.609375"/>
      <use xlink:href="#DejaVuSans-65" x="489.591797"/>
      <use xlink:href="#DejaVuSans-70" x="551.115234"/>
      <use xlink:href="#DejaVuSans-6f" x="614.591797"/>
      <use xlink:href="#DejaVuSans-73" x="675.773438"/>
      <use xlink:href="#DejaVuSans-69" x="727.873047"/>
      <use xlink:href="#DejaVuSans-74" x="755.65625"/>
      <use xlink:href="#DejaVuSans-6f" x="794.865234"/>
      <use xlink:href="#DejaVuSans-72" x="856.046875"/>
      <use xlink:href="#DejaVuSans-69" x="897.160156"/>
      <use xlink:href="#DejaVuSans-65" x="924.943359"/>
      <use xlink:href="#DejaVuSans-73" x="986.466797"/>
     </g>
    </g>
   </g>
   <g id="matplotlib.axis_2">
    <g id="ytick_1">
     <g id="line2d_10">
      <defs>
       <path id="m480152710f" d="M 0 0 
L -3.5 0 
" style="stroke: #000000; stroke-width: 0.8"/>
      </defs>
      <g>
       <use xlink:href="#m480152710f" x="54.270934" y="312.488257" style="stroke: #000000; stroke-width: 0.8"/>
      </g>
     </g>
     <g id="text_11">
      <!-- 0.0 -->
      <g transform="translate(31.367809 316.287475) scale(0.1 -0.1)">
       <defs>
        <path id="DejaVuSans-2e" d="M 684 794 
L 1344 794 
L 1344 0 
L 684 0 
L 684 794 
z
" transform="scale(0.015625)"/>
       </defs>
       <use xlink:href="#DejaVuSans-30"/>
       <use xlink:href="#DejaVuSans-2e" x="63.623047"/>
       <use xlink:href="#DejaVuSans-30" x="95.410156"/>
      </g>
     </g>
    </g>
    <g id="ytick_2">
     <g id="line2d_11">
      <g>
       <use xlink:href="#m480152710f" x="54.270934" y="278.315845" style="stroke: #000000; stroke-width: 0.8"/>
      </g>
     </g>
     <g id="text_12">
      <!-- 2.5 -->
      <g transform="translate(31.367809 282.115064) scale(0.1 -0.1)">
       <defs>
        <path id="DejaVuSans-35" d="M 691 4666 
L 3169 4666 
L 3169 4134 
L 1269 4134 
L 1269 2991 
Q 1406 3038 1543 3061 
Q 1681 3084 1819 3084 
Q 2600 3084 3056 2656 
Q 3513 2228 3513 1497 
Q 3513 744 3044 326 
Q 2575 -91 1722 -91 
Q 1428 -91 1123 -41 
Q 819 9 494 109 
L 494 744 
Q 775 591 1075 516 
Q 1375 441 1709 441 
Q 2250 441 2565 725 
Q 2881 1009 2881 1497 
Q 2881 1984 2565 2268 
Q 2250 2553 1709 2553 
Q 1456 2553 1204 2497 
Q 953 2441 691 2322 
L 691 4666 
z
" transform="scale(0.015625)"/>
       </defs>
       <use xlink:href="#DejaVuSans-32"/>
       <use xlink:href="#DejaVuSans-2e" x="63.623047"/>
       <use xlink:href="#DejaVuSans-35" x="95.410156"/>
      </g>
     </g>
    </g>
    <g id="ytick_3">
     <g id="line2d_12">
      <g>
       <use xlink:href="#m480152710f" x="54.270934" y="244.143434" style="stroke: #000000; stroke-width: 0.8"/>
      </g>
     </g>
     <g id="text_13">
      <!-- 5.0 -->
      <g transform="translate(31.367809 247.942652) scale(0.1 -0.1)">
       <use xlink:href="#DejaVuSans-35"/>
       <use xlink:href="#DejaVuSans-2e" x="63.623047"/>
       <use xlink:href="#DejaVuSans-30" x="95.410156"/>
      </g>
     </g>
    </g>
    <g id="ytick_4">
     <g id="line2d_13">
      <g>
       <use xlink:href="#m480152710f" x="54.270934" y="209.971022" style="stroke: #000000; stroke-width: 0.8"/>
      </g>
     </g>
     <g id="text_14">
      <!-- 7.5 -->
      <g transform="translate(31.367809 213.770241) scale(0.1 -0.1)">
       <defs>
        <path id="DejaVuSans-37" d="M 525 4666 
L 3525 4666 
L 3525 4397 
L 1831 0 
L 1172 0 
L 2766 4134 
L 525 4134 
L 525 4666 
z
" transform="scale(0.015625)"/>
       </defs>
       <use xlink:href="#DejaVuSans-37"/>
       <use xlink:href="#DejaVuSans-2e" x="63.623047"/>
       <use xlink:href="#DejaVuSans-35" x="95.410156"/>
      </g>
     </g>
    </g>
    <g id="ytick_5">
     <g id="line2d_14">
      <g>
       <use xlink:href="#m480152710f" x="54.270934" y="175.798611" style="stroke: #000000; stroke-width: 0.8"/>
      </g>
     </g>
     <g id="text_15">
      <!-- 10.0 -->
      <g transform="translate(25.005309 179.597829) scale(0.1 -0.1)">
       <use xlink:href="#DejaVuSans-31"/>
       <use xlink:href="#DejaVuSans-30" x="63.623047"/>
       <use xlink:href="#DejaVuSans-2e" x="127.246094"/>
       <use xlink:href="#DejaVuSans-30" x="159.033203"/>
      </g>
     </g>
    </g>
    <g id="ytick_6">
     <g id="line2d_15">
      <g>
       <use xlink:href="#m480152710f" x="54.270934" y="141.626199" style="stroke: #000000; stroke-width: 0.8"/>
      </g>
     </g>
     <g id="text_16">
      <!-- 12.5 -->
      <g transform="translate(25.005309 145.425418) scale(0.1 -0.1)">
       <use xlink:href="#DejaVuSans-31"/>
       <use xlink:href="#DejaVuSans-32" x="63.623047"/>
       <use xlink:href="#DejaVuSans-2e" x="127.246094"/>
       <use xlink:href="#DejaVuSans-35" x="159.033203"/>
      </g>
     </g>
    </g>
    <g id="ytick_7">
     <g id="line2d_16">
      <g>
       <use xlink:href="#m480152710f" x="54.270934" y="107.453788" style="stroke: #000000; stroke-width: 0.8"/>
      </g>
     </g>
     <g id="text_17">
      <!-- 15.0 -->
      <g transform="translate(25.005309 111.253006) scale(0.1 -0.1)">
       <use xlink:href="#DejaVuSans-31"/>
       <use xlink:href="#DejaVuSans-35" x="63.623047"/>
       <use xlink:href="#DejaVuSans-2e" x="127.246094"/>
       <use xlink:href="#DejaVuSans-30" x="159.033203"/>
      </g>
     </g>
    </g>
    <g id="ytick_8">
     <g id="line2d_17">
      <g>
       <use xlink:href="#m480152710f" x="54.270934" y="73.281376" style="stroke: #000000; stroke-width: 0.8"/>
      </g>
     </g>
     <g id="text_18">
      <!-- 17.5 -->
      <g transform="translate(25.005309 77.080595) scale(0.1 -0.1)">
       <use xlink:href="#DejaVuSans-31"/>
       <use xlink:href="#DejaVuSans-37" x="63.623047"/>
       <use xlink:href="#DejaVuSans-2e" x="127.246094"/>
       <use xlink:href="#DejaVuSans-35" x="159.033203"/>
      </g>
     </g>
    </g>
    <g id="ytick_9">
     <g id="line2d_18">
      <g>
       <use xlink:href="#m480152710f" x="54.270934" y="39.108965" style="stroke: #000000; stroke-width: 0.8"/>
      </g>
     </g>
     <g id="text_19">
      <!-- 20.0 -->
      <g transform="translate(25.005309 42.908183) scale(0.1 -0.1)">
       <use xlink:href="#DejaVuSans-32"/>
       <use xlink:href="#DejaVuSans-30" x="63.623047"/>
       <use xlink:href="#DejaVuSans-2e" x="127.246094"/>
       <use xlink:href="#DejaVuSans-30" x="159.033203"/>
      </g>
     </g>
    </g>
    <g id="text_20">
     <!-- Scores -->
     <g transform="translate(18.925621 185.57116) rotate(-90) scale(0.1 -0.1)">
      <use xlink:href="#DejaVuSans-53"/>
      <use xlink:href="#DejaVuSans-63" x="63.476562"/>
      <use xlink:href="#DejaVuSans-6f" x="118.457031"/>
      <use xlink:href="#DejaVuSans-72" x="179.638672"/>
      <use xlink:href="#DejaVuSans-65" x="218.501953"/>
      <use xlink:href="#DejaVuSans-73" x="280.025391"/>
     </g>
    </g>
   </g>
   <g id="patch_21">
    <path d="M 54.270934 312.488257 
L 54.270934 25.44 
" style="fill: none; stroke: #000000; stroke-width: 0.8; stroke-linejoin: miter; stroke-linecap: square"/>
   </g>
   <g id="patch_22">
    <path d="M 359.405467 312.488257 
L 359.405467 25.44 
" style="fill: none; stroke: #000000; stroke-width: 0.8; stroke-linejoin: miter; stroke-linecap: square"/>
   </g>
   <g id="patch_23">
    <path d="M 54.270934 312.488257 
L 359.405467 312.488257 
" style="fill: none; stroke: #000000; stroke-width: 0.8; stroke-linejoin: miter; stroke-linecap: square"/>
   </g>
   <g id="patch_24">
    <path d="M 54.270934 25.44 
L 359.405467 25.44 
" style="fill: none; stroke: #000000; stroke-width: 0.8; stroke-linejoin: miter; stroke-linecap: square"/>
   </g>
   <g id="text_21">
    <!-- Comparison of Human and AI Scores -->
    <g transform="translate(96.866638 19.44) scale(0.12 -0.12)">
     <defs>
      <path id="DejaVuSans-6e" d="M 3513 2113 
L 3513 0 
L 2938 0 
L 2938 2094 
Q 2938 2591 2744 2837 
Q 2550 3084 2163 3084 
Q 1697 3084 1428 2787 
Q 1159 2491 1159 1978 
L 1159 0 
L 581 0 
L 581 3500 
L 1159 3500 
L 1159 2956 
Q 1366 3272 1645 3428 
Q 1925 3584 2291 3584 
Q 2894 3584 3203 3211 
Q 3513 2838 3513 2113 
z
" transform="scale(0.015625)"/>
      <path id="DejaVuSans-48" d="M 628 4666 
L 1259 4666 
L 1259 2753 
L 3553 2753 
L 3553 4666 
L 4184 4666 
L 4184 0 
L 3553 0 
L 3553 2222 
L 1259 2222 
L 1259 0 
L 628 0 
L 628 4666 
z
" transform="scale(0.015625)"/>
     </defs>
     <use xlink:href="#DejaVuSans-43"/>
     <use xlink:href="#DejaVuSans-6f" x="69.824219"/>
     <use xlink:href="#DejaVuSans-6d" x="131.005859"/>
     <use xlink:href="#DejaVuSans-70" x="228.417969"/>
     <use xlink:href="#DejaVuSans-61" x="291.894531"/>
     <use xlink:href="#DejaVuSans-72" x="353.173828"/>
     <use xlink:href="#DejaVuSans-69" x="394.287109"/>
     <use xlink:href="#DejaVuSans-73" x="422.070312"/>
     <use xlink:href="#DejaVuSans-6f" x="474.169922"/>
     <use xlink:href="#DejaVuSans-6e" x="535.351562"/>
     <use xlink:href="#DejaVuSans-20" x="598.730469"/>
     <use xlink:href="#DejaVuSans-6f" x="630.517578"/>
     <use xlink:href="#DejaVuSans-66" x="691.699219"/>
     <use xlink:href="#DejaVuSans-20" x="726.904297"/>
     <use xlink:href="#DejaVuSans-48" x="758.691406"/>
     <use xlink:href="#DejaVuSans-75" x="833.886719"/>
     <use xlink:href="#DejaVuSans-6d" x="897.265625"/>
     <use xlink:href="#DejaVuSans-61" x="994.677734"/>
     <use xlink:href="#DejaVuSans-6e" x="1055.957031"/>
     <use xlink:href="#DejaVuSans-20" x="1119.335938"/>
     <use xlink:href="#DejaVuSans-61" x="1151.123047"/>
     <use xlink:href="#DejaVuSans-6e" x="1212.402344"/>
     <use xlink:href="#DejaVuSans-64" x="1275.78125"/>
     <use xlink:href="#DejaVuSans-20" x="1339.257812"/>
     <use xlink:href="#DejaVuSans-41" x="1371.044922"/>
     <use xlink:href="#DejaVuSans-49" x="1439.453125"/>
     <use xlink:href="#DejaVuSans-20" x="1468.945312"/>
     <use xlink:href="#DejaVuSans-53" x="1500.732422"/>
     <use xlink:href="#DejaVuSans-63" x="1564.208984"/>
     <use xlink:href="#DejaVuSans-6f" x="1619.189453"/>
     <use xlink:href="#DejaVuSans-72" x="1680.371094"/>
     <use xlink:href="#DejaVuSans-65" x="1719.234375"/>
     <use xlink:href="#DejaVuSans-73" x="1780.757812"/>
    </g>
   </g>
   <g id="legend_1">
    <g id="patch_25">
     <path d="M 61.270934 62.79625 
L 165.727184 62.79625 
Q 167.727184 62.79625 167.727184 60.79625 
L 167.727184 32.44 
Q 167.727184 30.44 165.727184 30.44 
L 61.270934 30.44 
Q 59.270934 30.44 59.270934 32.44 
L 59.270934 60.79625 
Q 59.270934 62.79625 61.270934 62.79625 
z
" style="fill: #ffffff; opacity: 0.8; stroke: #cccccc; stroke-linejoin: miter"/>
    </g>
    <g id="patch_26">
     <path d="M 63.270934 42.038437 
L 83.270934 42.038437 
L 83.270934 35.038437 
L 63.270934 35.038437 
z
" style="fill: #1f77b4"/>
    </g>
    <g id="text_22">
     <!-- Human Scores -->
     <g transform="translate(91.270934 42.038437) scale(0.1 -0.1)">
      <use xlink:href="#DejaVuSans-48"/>
      <use xlink:href="#DejaVuSans-75" x="75.195312"/>
      <use xlink:href="#DejaVuSans-6d" x="138.574219"/>
      <use xlink:href="#DejaVuSans-61" x="235.986328"/>
      <use xlink:href="#DejaVuSans-6e" x="297.265625"/>
      <use xlink:href="#DejaVuSans-20" x="360.644531"/>
      <use xlink:href="#DejaVuSans-53" x="392.431641"/>
      <use xlink:href="#DejaVuSans-63" x="455.908203"/>
      <use xlink:href="#DejaVuSans-6f" x="510.888672"/>
      <use xlink:href="#DejaVuSans-72" x="572.070312"/>
      <use xlink:href="#DejaVuSans-65" x="610.933594"/>
      <use xlink:href="#DejaVuSans-73" x="672.457031"/>
     </g>
    </g>
    <g id="patch_27">
     <path d="M 63.270934 56.716563 
L 83.270934 56.716563 
L 83.270934 49.716563 
L 63.270934 49.716563 
z
" style="fill: #ff7f0e"/>
    </g>
    <g id="text_23">
     <!-- AI Scores -->
     <g transform="translate(91.270934 56.716563) scale(0.1 -0.1)">
      <use xlink:href="#DejaVuSans-41"/>
      <use xlink:href="#DejaVuSans-49" x="68.408203"/>
      <use xlink:href="#DejaVuSans-20" x="97.900391"/>
      <use xlink:href="#DejaVuSans-53" x="129.6875"/>
      <use xlink:href="#DejaVuSans-63" x="193.164062"/>
      <use xlink:href="#DejaVuSans-6f" x="248.144531"/>
      <use xlink:href="#DejaVuSans-72" x="309.326172"/>
      <use xlink:href="#DejaVuSans-65" x="348.189453"/>
      <use xlink:href="#DejaVuSans-73" x="409.712891"/>
     </g>
    </g>
   </g>
  </g>
  <g id="axes_2">
   <g id="patch_28">
    <path d="M 404.065467 312.488257 
L 709.2 312.488257 
L 709.2 25.44 
L 404.065467 25.44 
z
" style="fill: #ffffff"/>
   </g>
   <g id="PolyCollection_1">
    <path d="M 507.905154 299.440609 
L 420.430293 299.440609 
L 419.851698 296.80472 
L 419.346187 294.168832 
L 418.915864 291.532943 
L 418.562408 288.897055 
L 418.287056 286.261166 
L 418.090596 283.625278 
L 417.973358 280.989389 
L 417.935218 278.353501 
L 417.975602 275.717612 
L 418.09349 273.081724 
L 418.287435 270.445835 
L 418.555572 267.809947 
L 418.895648 265.174058 
L 419.305038 262.53817 
L 419.780775 259.902281 
L 420.319584 257.266393 
L 420.917908 254.630504 
L 421.571948 251.994616 
L 422.277698 249.358727 
L 423.030981 246.722839 
L 423.827489 244.08695 
L 424.662821 241.451062 
L 425.53252 238.815173 
L 426.432111 236.179285 
L 427.357139 233.543396 
L 428.303199 230.907508 
L 429.265973 228.271619 
L 430.24126 225.635731 
L 431.225 222.999842 
L 432.213303 220.363954 
L 433.202469 217.728065 
L 434.189007 215.092177 
L 435.169649 212.456288 
L 436.141365 209.8204 
L 437.101369 207.184511 
L 438.047125 204.548623 
L 438.976349 201.912734 
L 439.887008 199.276846 
L 440.777318 196.640957 
L 441.645733 194.005069 
L 442.490941 191.36918 
L 443.311852 188.733292 
L 444.107581 186.097403 
L 444.877439 183.461515 
L 445.620917 180.825627 
L 446.337664 178.189738 
L 447.027479 175.55385 
L 447.690286 172.917961 
L 448.326125 170.282073 
L 448.935129 167.646184 
L 449.517511 165.010296 
L 450.073552 162.374407 
L 450.603583 159.738519 
L 451.107975 157.10263 
L 451.58713 154.466742 
L 452.04147 151.830853 
L 452.471429 149.194965 
L 452.877448 146.559076 
L 453.259973 143.923188 
L 453.619448 141.287299 
L 453.956318 138.651411 
L 454.271027 136.015522 
L 454.564021 133.379634 
L 454.835751 130.743745 
L 455.086675 128.107857 
L 455.317264 125.471968 
L 455.528007 122.83608 
L 455.719416 120.200191 
L 455.892032 117.564303 
L 456.046429 114.928414 
L 456.183221 112.292526 
L 456.303068 109.656637 
L 456.406676 107.020749 
L 456.494804 104.38486 
L 456.568265 101.748972 
L 456.627928 99.113083 
L 456.674717 96.477195 
L 456.709614 93.841306 
L 456.733652 91.205418 
L 456.747915 88.569529 
L 456.753534 85.933641 
L 456.751678 83.297752 
L 456.743552 80.661864 
L 456.730386 78.025975 
L 456.713429 75.390087 
L 456.693937 72.754198 
L 456.673168 70.11831 
L 456.652366 67.482421 
L 456.632756 64.846533 
L 456.615527 62.210644 
L 456.60183 59.574756 
L 456.592761 56.938867 
L 456.589352 54.302979 
L 456.592567 51.66709 
L 456.603287 49.031202 
L 456.622305 46.395313 
L 456.650319 43.759425 
L 456.687929 41.123537 
L 456.735629 38.487648 
L 471.599818 38.487648 
L 471.599818 38.487648 
L 471.647517 41.123537 
L 471.685128 43.759425 
L 471.713142 46.395313 
L 471.73216 49.031202 
L 471.74288 51.66709 
L 471.746094 54.302979 
L 471.742686 56.938867 
L 471.733617 59.574756 
L 471.71992 62.210644 
L 471.702691 64.846533 
L 471.68308 67.482421 
L 471.662279 70.11831 
L 471.641509 72.754198 
L 471.622018 75.390087 
L 471.605061 78.025975 
L 471.591895 80.661864 
L 471.583769 83.297752 
L 471.581913 85.933641 
L 471.587531 88.569529 
L 471.601795 91.205418 
L 471.625833 93.841306 
L 471.66073 96.477195 
L 471.707519 99.113083 
L 471.767182 101.748972 
L 471.840643 104.38486 
L 471.928771 107.020749 
L 472.032379 109.656637 
L 472.152226 112.292526 
L 472.289018 114.928414 
L 472.443415 117.564303 
L 472.616031 120.200191 
L 472.807439 122.83608 
L 473.018182 125.471968 
L 473.248772 128.107857 
L 473.499695 130.743745 
L 473.771425 133.379634 
L 474.06442 136.015522 
L 474.379129 138.651411 
L 474.715999 141.287299 
L 475.075474 143.923188 
L 475.457998 146.559076 
L 475.864018 149.194965 
L 476.293977 151.830853 
L 476.748316 154.466742 
L 477.227472 157.10263 
L 477.731864 159.738519 
L 478.261895 162.374407 
L 478.817935 165.010296 
L 479.400318 167.646184 
L 480.009321 170.282073 
L 480.64516 172.917961 
L 481.307968 175.55385 
L 481.997783 178.189738 
L 482.71453 180.825627 
L 483.458007 183.461515 
L 484.227866 186.097403 
L 485.023595 188.733292 
L 485.844505 191.36918 
L 486.689714 194.005069 
L 487.558129 196.640957 
L 488.448439 199.276846 
L 489.359098 201.912734 
L 490.288322 204.548623 
L 491.234078 207.184511 
L 492.194082 209.8204 
L 493.165798 212.456288 
L 494.14644 215.092177 
L 495.132978 217.728065 
L 496.122144 220.363954 
L 497.110447 222.999842 
L 498.094187 225.635731 
L 499.069473 228.271619 
L 500.032248 230.907508 
L 500.978308 233.543396 
L 501.903335 236.179285 
L 502.802927 238.815173 
L 503.672626 241.451062 
L 504.507958 244.08695 
L 505.304466 246.722839 
L 506.057749 249.358727 
L 506.763499 251.994616 
L 507.417539 254.630504 
L 508.015863 257.266393 
L 508.554672 259.902281 
L 509.030409 262.53817 
L 509.439799 265.174058 
L 509.779874 267.809947 
L 510.048012 270.445835 
L 510.241956 273.081724 
L 510.359845 275.717612 
L 510.400228 278.353501 
L 510.362089 280.989389 
L 510.244851 283.625278 
L 510.04839 286.261166 
L 509.773039 288.897055 
L 509.419583 291.532943 
L 508.98926 294.168832 
L 508.483748 296.80472 
L 507.905154 299.440609 
z
" clip-path="url(#pa7afa02c84)" style="fill: #1f77b4; fill-opacity: 0.3"/>
   </g>
   <g id="PolyCollection_2">
    <path d="M 695.330248 125.471968 
L 602.865238 125.471968 
L 602.868915 125.032653 
L 602.916066 124.593339 
L 603.006364 124.154024 
L 603.139341 123.714709 
L 603.314391 123.275394 
L 603.530774 122.83608 
L 603.787615 122.396765 
L 604.083911 121.95745 
L 604.418534 121.518135 
L 604.790233 121.078821 
L 605.197644 120.639506 
L 605.63929 120.200191 
L 606.113593 119.760876 
L 606.618875 119.321562 
L 607.15337 118.882247 
L 607.715228 118.442932 
L 608.302524 118.003617 
L 608.913266 117.564303 
L 609.545403 117.124988 
L 610.196835 116.685673 
L 610.865417 116.246358 
L 611.548975 115.807044 
L 612.245308 115.367729 
L 612.952201 114.928414 
L 613.66743 114.4891 
L 614.388777 114.049785 
L 615.11403 113.61047 
L 615.841 113.171155 
L 616.567522 112.731841 
L 617.291469 112.292526 
L 618.010754 111.853211 
L 618.723342 111.413896 
L 619.427256 110.974582 
L 620.120582 110.535267 
L 620.801477 110.095952 
L 621.468175 109.656637 
L 622.118992 109.217323 
L 622.752331 108.778008 
L 623.366688 108.338693 
L 623.960655 107.899378 
L 624.532923 107.460064 
L 625.082288 107.020749 
L 625.607654 106.581434 
L 626.10803 106.142119 
L 626.582539 105.702805 
L 627.030417 105.26349 
L 627.45101 104.824175 
L 627.843782 104.38486 
L 628.208309 103.945546 
L 628.544282 103.506231 
L 628.851506 103.066916 
L 629.129898 102.627601 
L 629.379486 102.188287 
L 629.600406 101.748972 
L 629.792902 101.309657 
L 629.957323 100.870342 
L 630.094118 100.431028 
L 630.203836 99.991713 
L 630.287118 99.552398 
L 630.344701 99.113083 
L 630.377402 98.673769 
L 630.386127 98.234454 
L 630.371857 97.795139 
L 630.335645 97.355824 
L 630.278616 96.91651 
L 630.201954 96.477195 
L 630.106905 96.03788 
L 629.994765 95.598565 
L 629.866876 95.159251 
L 629.724623 94.719936 
L 629.569427 94.280621 
L 629.402736 93.841306 
L 629.226024 93.401992 
L 629.040782 92.962677 
L 628.848512 92.523362 
L 628.650723 92.084047 
L 628.448925 91.644733 
L 628.244621 91.205418 
L 628.039303 90.766103 
L 627.834446 90.326788 
L 627.631504 89.887474 
L 627.431901 89.448159 
L 627.237029 89.008844 
L 627.048242 88.569529 
L 626.866852 88.130215 
L 626.694122 87.6909 
L 626.531264 87.251585 
L 626.379435 86.81227 
L 626.23973 86.372956 
L 626.113184 85.933641 
L 626.000763 85.494326 
L 625.903363 85.055011 
L 625.821811 84.615697 
L 625.756857 84.176382 
L 625.709175 83.737067 
L 625.679363 83.297752 
L 625.667937 82.858438 
L 625.675336 82.419123 
L 625.701917 81.979808 
L 672.49357 81.979808 
L 672.49357 81.979808 
L 672.520151 82.419123 
L 672.52755 82.858438 
L 672.516124 83.297752 
L 672.486312 83.737067 
L 672.43863 84.176382 
L 672.373676 84.615697 
L 672.292124 85.055011 
L 672.194724 85.494326 
L 672.082303 85.933641 
L 671.955757 86.372956 
L 671.816052 86.81227 
L 671.664223 87.251585 
L 671.501365 87.6909 
L 671.328635 88.130215 
L 671.147245 88.569529 
L 670.958458 89.008844 
L 670.763586 89.448159 
L 670.563983 89.887474 
L 670.361041 90.326788 
L 670.156184 90.766103 
L 669.950866 91.205418 
L 669.746562 91.644733 
L 669.544764 92.084047 
L 669.346975 92.523362 
L 669.154705 92.962677 
L 668.969463 93.401992 
L 668.792751 93.841306 
L 668.62606 94.280621 
L 668.470864 94.719936 
L 668.328611 95.159251 
L 668.200722 95.598565 
L 668.088582 96.03788 
L 667.993533 96.477195 
L 667.916871 96.91651 
L 667.859842 97.355824 
L 667.82363 97.795139 
L 667.80936 98.234454 
L 667.818085 98.673769 
L 667.850786 99.113083 
L 667.908368 99.552398 
L 667.991651 99.991713 
L 668.101369 100.431028 
L 668.238164 100.870342 
L 668.402585 101.309657 
L 668.595081 101.748972 
L 668.816001 102.188287 
L 669.065589 102.627601 
L 669.34398 103.066916 
L 669.651205 103.506231 
L 669.987178 103.945546 
L 670.351705 104.38486 
L 670.744477 104.824175 
L 671.16507 105.26349 
L 671.612948 105.702805 
L 672.087457 106.142119 
L 672.587833 106.581434 
L 673.113199 107.020749 
L 673.662564 107.460064 
L 674.234832 107.899378 
L 674.828799 108.338693 
L 675.443156 108.778008 
L 676.076495 109.217323 
L 676.727312 109.656637 
L 677.39401 110.095952 
L 678.074905 110.535267 
L 678.768231 110.974582 
L 679.472145 111.413896 
L 680.184733 111.853211 
L 680.904018 112.292526 
L 681.627964 112.731841 
L 682.354487 113.171155 
L 683.081457 113.61047 
L 683.80671 114.049785 
L 684.528057 114.4891 
L 685.243286 114.928414 
L 685.950179 115.367729 
L 686.646512 115.807044 
L 687.33007 116.246358 
L 687.998652 116.685673 
L 688.650084 117.124988 
L 689.282221 117.564303 
L 689.892963 118.003617 
L 690.480259 118.442932 
L 691.042117 118.882247 
L 691.576612 119.321562 
L 692.081894 119.760876 
L 692.556197 120.200191 
L 692.997843 120.639506 
L 693.405253 121.078821 
L 693.776953 121.518135 
L 694.111576 121.95745 
L 694.407872 122.396765 
L 694.664713 122.83608 
L 694.881096 123.275394 
L 695.056146 123.714709 
L 695.189123 124.154024 
L 695.279421 124.593339 
L 695.326572 125.032653 
L 695.330248 125.471968 
z
" clip-path="url(#pa7afa02c84)" style="fill: #1f77b4; fill-opacity: 0.3"/>
   </g>
   <g id="matplotlib.axis_3">
    <g id="xtick_10">
     <g id="line2d_19">
      <g>
       <use xlink:href="#m1155d01819" x="464.167723" y="312.488257" style="stroke: #000000; stroke-width: 0.8"/>
      </g>
     </g>
     <g id="text_24">
      <!-- Human Scores -->
      <g transform="translate(427.939598 327.086694) scale(0.1 -0.1)">
       <use xlink:href="#DejaVuSans-48"/>
       <use xlink:href="#DejaVuSans-75" x="75.195312"/>
       <use xlink:href="#DejaVuSans-6d" x="138.574219"/>
       <use xlink:href="#DejaVuSans-61" x="235.986328"/>
       <use xlink:href="#DejaVuSans-6e" x="297.265625"/>
       <use xlink:href="#DejaVuSans-20" x="360.644531"/>
       <use xlink:href="#DejaVuSans-53" x="392.431641"/>
       <use xlink:href="#DejaVuSans-63" x="455.908203"/>
       <use xlink:href="#DejaVuSans-6f" x="510.888672"/>
       <use xlink:href="#DejaVuSans-72" x="572.070312"/>
       <use xlink:href="#DejaVuSans-65" x="610.933594"/>
       <use xlink:href="#DejaVuSans-73" x="672.457031"/>
      </g>
     </g>
    </g>
    <g id="xtick_11">
     <g id="line2d_20">
      <g>
       <use xlink:href="#m1155d01819" x="649.097743" y="312.488257" style="stroke: #000000; stroke-width: 0.8"/>
      </g>
     </g>
     <g id="text_25">
      <!-- AI Scores -->
      <g transform="translate(626.006337 327.086694) scale(0.1 -0.1)">
       <use xlink:href="#DejaVuSans-41"/>
       <use xlink:href="#DejaVuSans-49" x="68.408203"/>
       <use xlink:href="#DejaVuSans-20" x="97.900391"/>
       <use xlink:href="#DejaVuSans-53" x="129.6875"/>
       <use xlink:href="#DejaVuSans-63" x="193.164062"/>
       <use xlink:href="#DejaVuSans-6f" x="248.144531"/>
       <use xlink:href="#DejaVuSans-72" x="309.326172"/>
       <use xlink:href="#DejaVuSans-65" x="348.189453"/>
       <use xlink:href="#DejaVuSans-73" x="409.712891"/>
      </g>
     </g>
    </g>
    <g id="text_26">
     <!-- Commiter -->
     <g transform="translate(531.860077 340.764819) scale(0.1 -0.1)">
      <use xlink:href="#DejaVuSans-43"/>
      <use xlink:href="#DejaVuSans-6f" x="69.824219"/>
      <use xlink:href="#DejaVuSans-6d" x="131.005859"/>
      <use xlink:href="#DejaVuSans-6d" x="228.417969"/>
      <use xlink:href="#DejaVuSans-69" x="325.830078"/>
      <use xlink:href="#DejaVuSans-74" x="353.613281"/>
      <use xlink:href="#DejaVuSans-65" x="392.822266"/>
      <use xlink:href="#DejaVuSans-72" x="454.345703"/>
     </g>
    </g>
   </g>
   <g id="matplotlib.axis_4">
    <g id="ytick_10">
     <g id="line2d_21">
      <g>
       <use xlink:href="#m480152710f" x="404.065467" y="299.440609" style="stroke: #000000; stroke-width: 0.8"/>
      </g>
     </g>
     <g id="text_27">
      <!-- 8 -->
      <g transform="translate(390.702967 303.239827) scale(0.1 -0.1)">
       <defs>
        <path id="DejaVuSans-38" d="M 2034 2216 
Q 1584 2216 1326 1975 
Q 1069 1734 1069 1313 
Q 1069 891 1326 650 
Q 1584 409 2034 409 
Q 2484 409 2743 651 
Q 3003 894 3003 1313 
Q 3003 1734 2745 1975 
Q 2488 2216 2034 2216 
z
M 1403 2484 
Q 997 2584 770 2862 
Q 544 3141 544 3541 
Q 544 4100 942 4425 
Q 1341 4750 2034 4750 
Q 2731 4750 3128 4425 
Q 3525 4100 3525 3541 
Q 3525 3141 3298 2862 
Q 3072 2584 2669 2484 
Q 3125 2378 3379 2068 
Q 3634 1759 3634 1313 
Q 3634 634 3220 271 
Q 2806 -91 2034 -91 
Q 1263 -91 848 271 
Q 434 634 434 1313 
Q 434 1759 690 2068 
Q 947 2378 1403 2484 
z
M 1172 3481 
Q 1172 3119 1398 2916 
Q 1625 2713 2034 2713 
Q 2441 2713 2670 2916 
Q 2900 3119 2900 3481 
Q 2900 3844 2670 4047 
Q 2441 4250 2034 4250 
Q 1625 4250 1398 4047 
Q 1172 3844 1172 3481 
z
" transform="scale(0.015625)"/>
       </defs>
       <use xlink:href="#DejaVuSans-38"/>
      </g>
     </g>
    </g>
    <g id="ytick_11">
     <g id="line2d_22">
      <g>
       <use xlink:href="#m480152710f" x="404.065467" y="255.948448" style="stroke: #000000; stroke-width: 0.8"/>
      </g>
     </g>
     <g id="text_28">
      <!-- 10 -->
      <g transform="translate(384.340467 259.747667) scale(0.1 -0.1)">
       <use xlink:href="#DejaVuSans-31"/>
       <use xlink:href="#DejaVuSans-30" x="63.623047"/>
      </g>
     </g>
    </g>
    <g id="ytick_12">
     <g id="line2d_23">
      <g>
       <use xlink:href="#m480152710f" x="404.065467" y="212.456288" style="stroke: #000000; stroke-width: 0.8"/>
      </g>
     </g>
     <g id="text_29">
      <!-- 12 -->
      <g transform="translate(384.340467 216.255507) scale(0.1 -0.1)">
       <use xlink:href="#DejaVuSans-31"/>
       <use xlink:href="#DejaVuSans-32" x="63.623047"/>
      </g>
     </g>
    </g>
    <g id="ytick_13">
     <g id="line2d_24">
      <g>
       <use xlink:href="#m480152710f" x="404.065467" y="168.964128" style="stroke: #000000; stroke-width: 0.8"/>
      </g>
     </g>
     <g id="text_30">
      <!-- 14 -->
      <g transform="translate(384.340467 172.763347) scale(0.1 -0.1)">
       <defs>
        <path id="DejaVuSans-34" d="M 2419 4116 
L 825 1625 
L 2419 1625 
L 2419 4116 
z
M 2253 4666 
L 3047 4666 
L 3047 1625 
L 3713 1625 
L 3713 1100 
L 3047 1100 
L 3047 0 
L 2419 0 
L 2419 1100 
L 313 1100 
L 313 1709 
L 2253 4666 
z
" transform="scale(0.015625)"/>
       </defs>
       <use xlink:href="#DejaVuSans-31"/>
       <use xlink:href="#DejaVuSans-34" x="63.623047"/>
      </g>
     </g>
    </g>
    <g id="ytick_14">
     <g id="line2d_25">
      <g>
       <use xlink:href="#m480152710f" x="404.065467" y="125.471968" style="stroke: #000000; stroke-width: 0.8"/>
      </g>
     </g>
     <g id="text_31">
      <!-- 16 -->
      <g transform="translate(384.340467 129.271187) scale(0.1 -0.1)">
       <defs>
        <path id="DejaVuSans-36" d="M 2113 2584 
Q 1688 2584 1439 2293 
Q 1191 2003 1191 1497 
Q 1191 994 1439 701 
Q 1688 409 2113 409 
Q 2538 409 2786 701 
Q 3034 994 3034 1497 
Q 3034 2003 2786 2293 
Q 2538 2584 2113 2584 
z
M 3366 4563 
L 3366 3988 
Q 3128 4100 2886 4159 
Q 2644 4219 2406 4219 
Q 1781 4219 1451 3797 
Q 1122 3375 1075 2522 
Q 1259 2794 1537 2939 
Q 1816 3084 2150 3084 
Q 2853 3084 3261 2657 
Q 3669 2231 3669 1497 
Q 3669 778 3244 343 
Q 2819 -91 2113 -91 
Q 1303 -91 875 529 
Q 447 1150 447 2328 
Q 447 3434 972 4092 
Q 1497 4750 2381 4750 
Q 2619 4750 2861 4703 
Q 3103 4656 3366 4563 
z
" transform="scale(0.015625)"/>
       </defs>
       <use xlink:href="#DejaVuSans-31"/>
       <use xlink:href="#DejaVuSans-36" x="63.623047"/>
      </g>
     </g>
    </g>
    <g id="ytick_15">
     <g id="line2d_26">
      <g>
       <use xlink:href="#m480152710f" x="404.065467" y="81.979808" style="stroke: #000000; stroke-width: 0.8"/>
      </g>
     </g>
     <g id="text_32">
      <!-- 18 -->
      <g transform="translate(384.340467 85.779027) scale(0.1 -0.1)">
       <use xlink:href="#DejaVuSans-31"/>
       <use xlink:href="#DejaVuSans-38" x="63.623047"/>
      </g>
     </g>
    </g>
    <g id="ytick_16">
     <g id="line2d_27">
      <g>
       <use xlink:href="#m480152710f" x="404.065467" y="38.487648" style="stroke: #000000; stroke-width: 0.8"/>
      </g>
     </g>
     <g id="text_33">
      <!-- 20 -->
      <g transform="translate(384.340467 42.286867) scale(0.1 -0.1)">
       <use xlink:href="#DejaVuSans-32"/>
       <use xlink:href="#DejaVuSans-30" x="63.623047"/>
      </g>
     </g>
    </g>
    <g id="text_34">
     <!-- Scores -->
     <g transform="translate(378.260779 185.57116) rotate(-90) scale(0.1 -0.1)">
      <use xlink:href="#DejaVuSans-53"/>
      <use xlink:href="#DejaVuSans-63" x="63.476562"/>
      <use xlink:href="#DejaVuSans-6f" x="118.457031"/>
      <use xlink:href="#DejaVuSans-72" x="179.638672"/>
      <use xlink:href="#DejaVuSans-65" x="218.501953"/>
      <use xlink:href="#DejaVuSans-73" x="280.025391"/>
     </g>
    </g>
   </g>
   <g id="LineCollection_1">
    <path d="M 441.051471 241.451062 
L 487.283976 241.451062 
" clip-path="url(#pa7afa02c84)" style="fill: none; stroke: #1f77b4; stroke-width: 1.5"/>
    <path d="M 625.981491 110.974582 
L 672.213996 110.974582 
" clip-path="url(#pa7afa02c84)" style="fill: none; stroke: #1f77b4; stroke-width: 1.5"/>
   </g>
   <g id="LineCollection_2">
    <path d="M 441.051471 38.487648 
L 487.283976 38.487648 
" clip-path="url(#pa7afa02c84)" style="fill: none; stroke: #1f77b4; stroke-width: 1.5"/>
    <path d="M 625.981491 81.979808 
L 672.213996 81.979808 
" clip-path="url(#pa7afa02c84)" style="fill: none; stroke: #1f77b4; stroke-width: 1.5"/>
   </g>
   <g id="LineCollection_3">
    <path d="M 441.051471 299.440609 
L 487.283976 299.440609 
" clip-path="url(#pa7afa02c84)" style="fill: none; stroke: #1f77b4; stroke-width: 1.5"/>
    <path d="M 625.981491 125.471968 
L 672.213996 125.471968 
" clip-path="url(#pa7afa02c84)" style="fill: none; stroke: #1f77b4; stroke-width: 1.5"/>
   </g>
   <g id="LineCollection_4">
    <path d="M 464.167723 299.440609 
L 464.167723 38.487648 
" clip-path="url(#pa7afa02c84)" style="fill: none; stroke: #1f77b4; stroke-width: 1.5"/>
    <path d="M 649.097743 125.471968 
L 649.097743 81.979808 
" clip-path="url(#pa7afa02c84)" style="fill: none; stroke: #1f77b4; stroke-width: 1.5"/>
   </g>
   <g id="LineCollection_5">
    <path d="M 441.051471 255.948448 
L 487.283976 255.948448 
" clip-path="url(#pa7afa02c84)" style="fill: none; stroke: #1f77b4; stroke-width: 1.5"/>
    <path d="M 625.981491 125.471968 
L 672.213996 125.471968 
" clip-path="url(#pa7afa02c84)" style="fill: none; stroke: #1f77b4; stroke-width: 1.5"/>
   </g>
   <g id="patch_29">
    <path d="M 404.065467 312.488257 
L 404.065467 25.44 
" style="fill: none; stroke: #000000; stroke-width: 0.8; stroke-linejoin: miter; stroke-linecap: square"/>
   </g>
   <g id="patch_30">
    <path d="M 709.2 312.488257 
L 709.2 25.44 
" style="fill: none; stroke: #000000; stroke-width: 0.8; stroke-linejoin: miter; stroke-linecap: square"/>
   </g>
   <g id="patch_31">
    <path d="M 404.065467 312.488257 
L 709.2 312.488257 
" style="fill: none; stroke: #000000; stroke-width: 0.8; stroke-linejoin: miter; stroke-linecap: square"/>
   </g>
   <g id="patch_32">
    <path d="M 404.065467 25.44 
L 709.2 25.44 
" style="fill: none; stroke: #000000; stroke-width: 0.8; stroke-linejoin: miter; stroke-linecap: square"/>
   </g>
   <g id="text_35">
    <!-- Comparison of Human and AI Scores -->
    <g transform="translate(446.661171 19.44) scale(0.12 -0.12)">
     <use xlink:href="#DejaVuSans-43"/>
     <use xlink:href="#DejaVuSans-6f" x="69.824219"/>
     <use xlink:href="#DejaVuSans-6d" x="131.005859"/>
     <use xlink:href="#DejaVuSans-70" x="228.417969"/>
     <use xlink:href="#DejaVuSans-61" x="291.894531"/>
     <use xlink:href="#DejaVuSans-72" x="353.173828"/>
     <use xlink:href="#DejaVuSans-69" x="394.287109"/>
     <use xlink:href="#DejaVuSans-73" x="422.070312"/>
     <use xlink:href="#DejaVuSans-6f" x="474.169922"/>
     <use xlink:href="#DejaVuSans-6e" x="535.351562"/>
     <use xlink:href="#DejaVuSans-20" x="598.730469"/>
     <use xlink:href="#DejaVuSans-6f" x="630.517578"/>
     <use xlink:href="#DejaVuSans-66" x="691.699219"/>
     <use xlink:href="#DejaVuSans-20" x="726.904297"/>
     <use xlink:href="#DejaVuSans-48" x="758.691406"/>
     <use xlink:href="#DejaVuSans-75" x="833.886719"/>
     <use xlink:href="#DejaVuSans-6d" x="897.265625"/>
     <use xlink:href="#DejaVuSans-61" x="994.677734"/>
     <use xlink:href="#DejaVuSans-6e" x="1055.957031"/>
     <use xlink:href="#DejaVuSans-20" x="1119.335938"/>
     <use xlink:href="#DejaVuSans-61" x="1151.123047"/>
     <use xlink:href="#DejaVuSans-6e" x="1212.402344"/>
     <use xlink:href="#DejaVuSans-64" x="1275.78125"/>
     <use xlink:href="#DejaVuSans-20" x="1339.257812"/>
     <use xlink:href="#DejaVuSans-41" x="1371.044922"/>
     <use xlink:href="#DejaVuSans-49" x="1439.453125"/>
     <use xlink:href="#DejaVuSans-20" x="1468.945312"/>
     <use xlink:href="#DejaVuSans-53" x="1500.732422"/>
     <use xlink:href="#DejaVuSans-63" x="1564.208984"/>
     <use xlink:href="#DejaVuSans-6f" x="1619.189453"/>
     <use xlink:href="#DejaVuSans-72" x="1680.371094"/>
     <use xlink:href="#DejaVuSans-65" x="1719.234375"/>
     <use xlink:href="#DejaVuSans-73" x="1780.757812"/>
    </g>
   </g>
  </g>
 </g>
 <defs>
  <clipPath id="p9d04292332">
   <rect x="54.270934" y="25.44" width="305.134533" height="287.048257"/>
  </clipPath>
  <clipPath id="pa7afa02c84">
   <rect x="404.065467" y="25.44" width="305.134533" height="287.048257"/>
  </clipPath>
 </defs>
</svg>
