<?xml version="1.0" encoding="utf-8" standalone="no"?>
<!DOCTYPE svg PUBLIC "-//W3C//DTD SVG 1.1//EN"
  "http://www.w3.org/Graphics/SVG/1.1/DTD/svg11.dtd">
<svg xmlns:xlink="http://www.w3.org/1999/xlink" width="504pt" height="432pt" viewBox="0 0 504 432" xmlns="http://www.w3.org/2000/svg" version="1.1">
 <metadata>
  <rdf:RDF xmlns:dc="http://purl.org/dc/elements/1.1/" xmlns:cc="http://creativecommons.org/ns#" xmlns:rdf="http://www.w3.org/1999/02/22-rdf-syntax-ns#">
   <cc:Work>
    <dc:type rdf:resource="http://purl.org/dc/dcmitype/StillImage"/>
    <dc:date>2024-02-16T10:23:10.937364</dc:date>
    <dc:format>image/svg+xml</dc:format>
    <dc:creator>
     <cc:Agent>
      <dc:title>Matplotlib v3.7.2, https://matplotlib.org/</dc:title>
     </cc:Agent>
    </dc:creator>
   </cc:Work>
  </rdf:RDF>
 </metadata>
 <defs>
  <style type="text/css">*{stroke-linejoin: round; stroke-linecap: butt}</style>
 </defs>
 <g id="figure_1">
  <g id="patch_1">
   <path d="M 0 432 
L 504 432 
L 504 0 
L 0 0 
z
" style="fill: #ffffff"/>
  </g>
  <g id="axes_1">
   <g id="patch_2">
    <path d="M 44.66 390.04 
L 493.2 390.04 
L 493.2 25.44 
L 44.66 25.44 
z
" style="fill: #ffffff"/>
   </g>
   <g id="PolyCollection_1">
    <path d="M 197.301697 373.467273 
L 68.715878 373.467273 
L 67.865359 370.119247 
L 67.122269 366.771221 
L 66.489705 363.423196 
L 65.970135 360.07517 
L 65.565375 356.727144 
L 65.276583 353.379118 
L 65.104246 350.031093 
L 65.048182 346.683067 
L 65.107545 343.335041 
L 65.280838 339.987016 
L 65.565931 336.63899 
L 65.960086 333.290964 
L 66.459989 329.942938 
L 67.061781 326.594913 
L 67.761103 323.246887 
L 68.553138 319.898861 
L 69.432659 316.550836 
L 70.394082 313.20281 
L 71.431516 309.854784 
L 72.538823 306.506758 
L 73.70967 303.158733 
L 74.937586 299.810707 
L 76.216022 296.462681 
L 77.538398 293.114656 
L 78.898165 289.76663 
L 80.288849 286.418604 
L 81.704103 283.070579 
L 83.13775 279.722553 
L 84.583823 276.374527 
L 86.036603 273.026501 
L 87.490652 269.678476 
L 88.940837 266.33045 
L 90.382356 262.982424 
L 91.810754 259.634399 
L 93.221936 256.286373 
L 94.612173 252.938347 
L 95.978108 249.590321 
L 97.316754 246.242296 
L 98.625487 242.89427 
L 99.902035 239.546244 
L 101.14447 236.198219 
L 102.351187 232.850193 
L 103.520889 229.502167 
L 104.652561 226.154141 
L 105.745454 222.806116 
L 106.799054 219.45809 
L 107.813064 216.110064 
L 108.787375 212.762039 
L 109.722042 209.414013 
L 110.617262 206.065987 
L 111.473349 202.717961 
L 112.290715 199.369936 
L 113.069846 196.02191 
L 113.81129 192.673884 
L 114.515636 189.325859 
L 115.183504 185.977833 
L 115.815533 182.629807 
L 116.412371 179.281781 
L 116.974672 175.933756 
L 117.503091 172.58573 
L 117.998282 169.237704 
L 118.460896 165.889679 
L 118.89159 162.541653 
L 119.291026 159.193627 
L 119.659878 155.845601 
L 119.998838 152.497576 
L 120.308625 149.14955 
L 120.589991 145.801524 
L 120.843732 142.453499 
L 121.070691 139.105473 
L 121.271773 135.757447 
L 121.447944 132.409421 
L 121.600246 129.061396 
L 121.729791 125.71337 
L 121.837777 122.365344 
L 121.92548 119.017319 
L 121.994259 115.669293 
L 122.045557 112.321267 
L 122.080892 108.973242 
L 122.101859 105.625216 
L 122.110118 102.27719 
L 122.10739 98.929164 
L 122.095444 95.581139 
L 122.076091 92.233113 
L 122.051164 88.885087 
L 122.022512 85.537062 
L 121.991982 82.189036 
L 121.961404 78.84101 
L 121.932577 75.492984 
L 121.907252 72.144959 
L 121.887117 68.796933 
L 121.873785 65.448907 
L 121.868775 62.100882 
L 121.873501 58.752856 
L 121.889259 55.40483 
L 121.917214 52.056804 
L 121.958395 48.708779 
L 122.013681 45.360753 
L 122.083798 42.012727 
L 143.933778 42.012727 
L 143.933778 42.012727 
L 144.003895 45.360753 
L 144.059181 48.708779 
L 144.100362 52.056804 
L 144.128317 55.40483 
L 144.144075 58.752856 
L 144.1488 62.100882 
L 144.14379 65.448907 
L 144.130459 68.796933 
L 144.110324 72.144959 
L 144.084999 75.492984 
L 144.056171 78.84101 
L 144.025593 82.189036 
L 143.995063 85.537062 
L 143.966412 88.885087 
L 143.941485 92.233113 
L 143.922131 95.581139 
L 143.910186 98.929164 
L 143.907458 102.27719 
L 143.915717 105.625216 
L 143.936683 108.973242 
L 143.972019 112.321267 
L 144.023316 115.669293 
L 144.092096 119.017319 
L 144.179799 122.365344 
L 144.287784 125.71337 
L 144.41733 129.061396 
L 144.569631 132.409421 
L 144.745803 135.757447 
L 144.946885 139.105473 
L 145.173844 142.453499 
L 145.427584 145.801524 
L 145.708951 149.14955 
L 146.018738 152.497576 
L 146.357698 155.845601 
L 146.726549 159.193627 
L 147.125985 162.541653 
L 147.55668 165.889679 
L 148.019294 169.237704 
L 148.514484 172.58573 
L 149.042903 175.933756 
L 149.605205 179.281781 
L 150.202043 182.629807 
L 150.834072 185.977833 
L 151.50194 189.325859 
L 152.206286 192.673884 
L 152.94773 196.02191 
L 153.726861 199.369936 
L 154.544227 202.717961 
L 155.400314 206.065987 
L 156.295534 209.414013 
L 157.230201 212.762039 
L 158.204512 216.110064 
L 159.218522 219.45809 
L 160.272122 222.806116 
L 161.365014 226.154141 
L 162.496687 229.502167 
L 163.666388 232.850193 
L 164.873106 236.198219 
L 166.115541 239.546244 
L 167.392089 242.89427 
L 168.700821 246.242296 
L 170.039467 249.590321 
L 171.405403 252.938347 
L 172.79564 256.286373 
L 174.206821 259.634399 
L 175.635219 262.982424 
L 177.076739 266.33045 
L 178.526924 269.678476 
L 179.980973 273.026501 
L 181.433753 276.374527 
L 182.879826 279.722553 
L 184.313472 283.070579 
L 185.728726 286.418604 
L 187.119411 289.76663 
L 188.479177 293.114656 
L 189.801554 296.462681 
L 191.079989 299.810707 
L 192.307906 303.158733 
L 193.478753 306.506758 
L 194.58606 309.854784 
L 195.623494 313.20281 
L 196.584917 316.550836 
L 197.464438 319.898861 
L 198.256472 323.246887 
L 198.955794 326.594913 
L 199.557587 329.942938 
L 200.057489 333.290964 
L 200.451645 336.63899 
L 200.736738 339.987016 
L 200.910031 343.335041 
L 200.969394 346.683067 
L 200.91333 350.031093 
L 200.740993 353.379118 
L 200.452201 356.727144 
L 200.047441 360.07517 
L 199.52787 363.423196 
L 198.895307 366.771221 
L 198.152217 370.119247 
L 197.301697 373.467273 
z
" clip-path="url(#p7416c00b6a)" style="fill: #1f77b4; fill-opacity: 0.3"/>
   </g>
   <g id="PolyCollection_2">
    <path d="M 472.811818 152.497576 
L 336.890606 152.497576 
L 336.89601 151.939571 
L 336.965322 151.381567 
L 337.098057 150.823563 
L 337.29353 150.265559 
L 337.550849 149.707554 
L 337.868926 149.14955 
L 338.246476 148.591546 
L 338.682024 148.033541 
L 339.173911 147.475537 
L 339.7203 146.917533 
L 340.319183 146.359529 
L 340.968392 145.801524 
L 341.665604 145.24352 
L 342.408357 144.685516 
L 343.19405 144.127511 
L 344.019967 143.569507 
L 344.883277 143.011503 
L 345.781053 142.453499 
L 346.710278 141.895494 
L 347.667866 141.33749 
L 348.650665 140.779486 
L 349.655478 140.221481 
L 350.67907 139.663477 
L 351.718184 139.105473 
L 352.769553 138.547469 
L 353.829914 137.989464 
L 354.896019 137.43146 
L 355.964646 136.873456 
L 357.032615 136.315451 
L 358.096798 135.757447 
L 359.154128 135.199443 
L 360.201615 134.641439 
L 361.23635 134.083434 
L 362.255522 133.52543 
L 363.256421 132.967426 
L 364.23645 132.409421 
L 365.193134 131.851417 
L 366.124127 131.293413 
L 367.027216 130.735409 
L 367.900331 130.177404 
L 368.741551 129.6194 
L 369.549104 129.061396 
L 370.321378 128.503391 
L 371.056918 127.945387 
L 371.754435 127.387383 
L 372.412803 126.829379 
L 373.031064 126.271374 
L 373.608429 125.71337 
L 374.144275 125.155366 
L 374.638147 124.597361 
L 375.089759 124.039357 
L 375.498988 123.481353 
L 375.865875 122.923349 
L 376.190622 122.365344 
L 376.473586 121.80734 
L 376.71528 121.249336 
L 376.916366 120.691331 
L 377.077648 120.133327 
L 377.200072 119.575323 
L 377.284716 119.017319 
L 377.332787 118.459314 
L 377.345612 117.90131 
L 377.324635 117.343306 
L 377.271405 116.785301 
L 377.187573 116.227297 
L 377.074883 115.669293 
L 376.935163 115.111289 
L 376.770319 114.553284 
L 376.582326 113.99528 
L 376.373219 113.437276 
L 376.145084 112.879272 
L 375.900053 112.321267 
L 375.64029 111.763263 
L 375.367989 111.205259 
L 375.085357 110.647254 
L 374.794612 110.08925 
L 374.497974 109.531246 
L 374.197652 108.973242 
L 373.89584 108.415237 
L 373.594706 107.857233 
L 373.296386 107.299229 
L 373.002974 106.741224 
L 372.716518 106.18322 
L 372.439006 105.625216 
L 372.172367 105.067212 
L 371.918458 104.509207 
L 371.679061 103.951203 
L 371.455876 103.393199 
L 371.250514 102.835194 
L 371.064495 102.27719 
L 370.899238 101.719186 
L 370.756063 101.161182 
L 370.636184 100.603177 
L 370.540702 100.045173 
L 370.470612 99.487169 
L 370.426788 98.929164 
L 370.409993 98.37116 
L 370.420869 97.813156 
L 370.459942 97.255152 
L 439.242482 97.255152 
L 439.242482 97.255152 
L 439.281555 97.813156 
L 439.292432 98.37116 
L 439.275636 98.929164 
L 439.231813 99.487169 
L 439.161722 100.045173 
L 439.066241 100.603177 
L 438.946361 101.161182 
L 438.803186 101.719186 
L 438.63793 102.27719 
L 438.45191 102.835194 
L 438.246548 103.393199 
L 438.023363 103.951203 
L 437.783966 104.509207 
L 437.530058 105.067212 
L 437.263418 105.625216 
L 436.985907 106.18322 
L 436.69945 106.741224 
L 436.406038 107.299229 
L 436.107718 107.857233 
L 435.806584 108.415237 
L 435.504772 108.973242 
L 435.20445 109.531246 
L 434.907812 110.08925 
L 434.617068 110.647254 
L 434.334436 111.205259 
L 434.062134 111.763263 
L 433.802372 112.321267 
L 433.55734 112.879272 
L 433.329206 113.437276 
L 433.120098 113.99528 
L 432.932105 114.553284 
L 432.767261 115.111289 
L 432.627541 115.669293 
L 432.514851 116.227297 
L 432.431019 116.785301 
L 432.377789 117.343306 
L 432.356812 117.90131 
L 432.369637 118.459314 
L 432.417708 119.017319 
L 432.502352 119.575323 
L 432.624776 120.133327 
L 432.786058 120.691331 
L 432.987144 121.249336 
L 433.228838 121.80734 
L 433.511803 122.365344 
L 433.836549 122.923349 
L 434.203436 123.481353 
L 434.612665 124.039357 
L 435.064277 124.597361 
L 435.55815 125.155366 
L 436.093995 125.71337 
L 436.67136 126.271374 
L 437.289621 126.829379 
L 437.947989 127.387383 
L 438.645506 127.945387 
L 439.381046 128.503391 
L 440.15332 129.061396 
L 440.960873 129.6194 
L 441.802093 130.177404 
L 442.675209 130.735409 
L 443.578298 131.293413 
L 444.50929 131.851417 
L 445.465974 132.409421 
L 446.446004 132.967426 
L 447.446902 133.52543 
L 448.466074 134.083434 
L 449.500809 134.641439 
L 450.548296 135.199443 
L 451.605627 135.757447 
L 452.669809 136.315451 
L 453.737779 136.873456 
L 454.806406 137.43146 
L 455.87251 137.989464 
L 456.932871 138.547469 
L 457.98424 139.105473 
L 459.023354 139.663477 
L 460.046946 140.221481 
L 461.051759 140.779486 
L 462.034558 141.33749 
L 462.992146 141.895494 
L 463.921372 142.453499 
L 464.819147 143.011503 
L 465.682457 143.569507 
L 466.508374 144.127511 
L 467.294068 144.685516 
L 468.03682 145.24352 
L 468.734033 145.801524 
L 469.383241 146.359529 
L 469.982124 146.917533 
L 470.528513 147.475537 
L 471.0204 148.033541 
L 471.455948 148.591546 
L 471.833498 149.14955 
L 472.151575 149.707554 
L 472.408894 150.265559 
L 472.604367 150.823563 
L 472.737102 151.381567 
L 472.806414 151.939571 
L 472.811818 152.497576 
z
" clip-path="url(#p7416c00b6a)" style="fill: #1f77b4; fill-opacity: 0.3"/>
   </g>
   <g id="matplotlib.axis_1">
    <g id="xtick_1">
     <g id="line2d_1">
      <defs>
       <path id="m6edf738820" d="M 0 0 
L 0 3.5 
" style="stroke: #000000; stroke-width: 0.8"/>
      </defs>
      <g>
       <use xlink:href="#m6edf738820" x="133.008788" y="390.04" style="stroke: #000000; stroke-width: 0.8"/>
      </g>
     </g>
     <g id="text_1">
      <!-- Human Scores -->
      <g transform="translate(96.780663 404.638438) scale(0.1 -0.1)">
       <defs>
        <path id="DejaVuSans-48" d="M 628 4666 
L 1259 4666 
L 1259 2753 
L 3553 2753 
L 3553 4666 
L 4184 4666 
L 4184 0 
L 3553 0 
L 3553 2222 
L 1259 2222 
L 1259 0 
L 628 0 
L 628 4666 
z
" transform="scale(0.015625)"/>
        <path id="DejaVuSans-75" d="M 544 1381 
L 544 3500 
L 1119 3500 
L 1119 1403 
Q 1119 906 1312 657 
Q 1506 409 1894 409 
Q 2359 409 2629 706 
Q 2900 1003 2900 1516 
L 2900 3500 
L 3475 3500 
L 3475 0 
L 2900 0 
L 2900 538 
Q 2691 219 2414 64 
Q 2138 -91 1772 -91 
Q 1169 -91 856 284 
Q 544 659 544 1381 
z
M 1991 3584 
L 1991 3584 
z
" transform="scale(0.015625)"/>
        <path id="DejaVuSans-6d" d="M 3328 2828 
Q 3544 3216 3844 3400 
Q 4144 3584 4550 3584 
Q 5097 3584 5394 3201 
Q 5691 2819 5691 2113 
L 5691 0 
L 5113 0 
L 5113 2094 
Q 5113 2597 4934 2840 
Q 4756 3084 4391 3084 
Q 3944 3084 3684 2787 
Q 3425 2491 3425 1978 
L 3425 0 
L 2847 0 
L 2847 2094 
Q 2847 2600 2669 2842 
Q 2491 3084 2119 3084 
Q 1678 3084 1418 2786 
Q 1159 2488 1159 1978 
L 1159 0 
L 581 0 
L 581 3500 
L 1159 3500 
L 1159 2956 
Q 1356 3278 1631 3431 
Q 1906 3584 2284 3584 
Q 2666 3584 2933 3390 
Q 3200 3197 3328 2828 
z
" transform="scale(0.015625)"/>
        <path id="DejaVuSans-61" d="M 2194 1759 
Q 1497 1759 1228 1600 
Q 959 1441 959 1056 
Q 959 750 1161 570 
Q 1363 391 1709 391 
Q 2188 391 2477 730 
Q 2766 1069 2766 1631 
L 2766 1759 
L 2194 1759 
z
M 3341 1997 
L 3341 0 
L 2766 0 
L 2766 531 
Q 2569 213 2275 61 
Q 1981 -91 1556 -91 
Q 1019 -91 701 211 
Q 384 513 384 1019 
Q 384 1609 779 1909 
Q 1175 2209 1959 2209 
L 2766 2209 
L 2766 2266 
Q 2766 2663 2505 2880 
Q 2244 3097 1772 3097 
Q 1472 3097 1187 3025 
Q 903 2953 641 2809 
L 641 3341 
Q 956 3463 1253 3523 
Q 1550 3584 1831 3584 
Q 2591 3584 2966 3190 
Q 3341 2797 3341 1997 
z
" transform="scale(0.015625)"/>
        <path id="DejaVuSans-6e" d="M 3513 2113 
L 3513 0 
L 2938 0 
L 2938 2094 
Q 2938 2591 2744 2837 
Q 2550 3084 2163 3084 
Q 1697 3084 1428 2787 
Q 1159 2491 1159 1978 
L 1159 0 
L 581 0 
L 581 3500 
L 1159 3500 
L 1159 2956 
Q 1366 3272 1645 3428 
Q 1925 3584 2291 3584 
Q 2894 3584 3203 3211 
Q 3513 2838 3513 2113 
z
" transform="scale(0.015625)"/>
        <path id="DejaVuSans-20" transform="scale(0.015625)"/>
        <path id="DejaVuSans-53" d="M 3425 4513 
L 3425 3897 
Q 3066 4069 2747 4153 
Q 2428 4238 2131 4238 
Q 1616 4238 1336 4038 
Q 1056 3838 1056 3469 
Q 1056 3159 1242 3001 
Q 1428 2844 1947 2747 
L 2328 2669 
Q 3034 2534 3370 2195 
Q 3706 1856 3706 1288 
Q 3706 609 3251 259 
Q 2797 -91 1919 -91 
Q 1588 -91 1214 -16 
Q 841 59 441 206 
L 441 856 
Q 825 641 1194 531 
Q 1563 422 1919 422 
Q 2459 422 2753 634 
Q 3047 847 3047 1241 
Q 3047 1584 2836 1778 
Q 2625 1972 2144 2069 
L 1759 2144 
Q 1053 2284 737 2584 
Q 422 2884 422 3419 
Q 422 4038 858 4394 
Q 1294 4750 2059 4750 
Q 2388 4750 2728 4690 
Q 3069 4631 3425 4513 
z
" transform="scale(0.015625)"/>
        <path id="DejaVuSans-63" d="M 3122 3366 
L 3122 2828 
Q 2878 2963 2633 3030 
Q 2388 3097 2138 3097 
Q 1578 3097 1268 2742 
Q 959 2388 959 1747 
Q 959 1106 1268 751 
Q 1578 397 2138 397 
Q 2388 397 2633 464 
Q 2878 531 3122 666 
L 3122 134 
Q 2881 22 2623 -34 
Q 2366 -91 2075 -91 
Q 1284 -91 818 406 
Q 353 903 353 1747 
Q 353 2603 823 3093 
Q 1294 3584 2113 3584 
Q 2378 3584 2631 3529 
Q 2884 3475 3122 3366 
z
" transform="scale(0.015625)"/>
        <path id="DejaVuSans-6f" d="M 1959 3097 
Q 1497 3097 1228 2736 
Q 959 2375 959 1747 
Q 959 1119 1226 758 
Q 1494 397 1959 397 
Q 2419 397 2687 759 
Q 2956 1122 2956 1747 
Q 2956 2369 2687 2733 
Q 2419 3097 1959 3097 
z
M 1959 3584 
Q 2709 3584 3137 3096 
Q 3566 2609 3566 1747 
Q 3566 888 3137 398 
Q 2709 -91 1959 -91 
Q 1206 -91 779 398 
Q 353 888 353 1747 
Q 353 2609 779 3096 
Q 1206 3584 1959 3584 
z
" transform="scale(0.015625)"/>
        <path id="DejaVuSans-72" d="M 2631 2963 
Q 2534 3019 2420 3045 
Q 2306 3072 2169 3072 
Q 1681 3072 1420 2755 
Q 1159 2438 1159 1844 
L 1159 0 
L 581 0 
L 581 3500 
L 1159 3500 
L 1159 2956 
Q 1341 3275 1631 3429 
Q 1922 3584 2338 3584 
Q 2397 3584 2469 3576 
Q 2541 3569 2628 3553 
L 2631 2963 
z
" transform="scale(0.015625)"/>
        <path id="DejaVuSans-65" d="M 3597 1894 
L 3597 1613 
L 953 1613 
Q 991 1019 1311 708 
Q 1631 397 2203 397 
Q 2534 397 2845 478 
Q 3156 559 3463 722 
L 3463 178 
Q 3153 47 2828 -22 
Q 2503 -91 2169 -91 
Q 1331 -91 842 396 
Q 353 884 353 1716 
Q 353 2575 817 3079 
Q 1281 3584 2069 3584 
Q 2775 3584 3186 3129 
Q 3597 2675 3597 1894 
z
M 3022 2063 
Q 3016 2534 2758 2815 
Q 2500 3097 2075 3097 
Q 1594 3097 1305 2825 
Q 1016 2553 972 2059 
L 3022 2063 
z
" transform="scale(0.015625)"/>
        <path id="DejaVuSans-73" d="M 2834 3397 
L 2834 2853 
Q 2591 2978 2328 3040 
Q 2066 3103 1784 3103 
Q 1356 3103 1142 2972 
Q 928 2841 928 2578 
Q 928 2378 1081 2264 
Q 1234 2150 1697 2047 
L 1894 2003 
Q 2506 1872 2764 1633 
Q 3022 1394 3022 966 
Q 3022 478 2636 193 
Q 2250 -91 1575 -91 
Q 1294 -91 989 -36 
Q 684 19 347 128 
L 347 722 
Q 666 556 975 473 
Q 1284 391 1588 391 
Q 1994 391 2212 530 
Q 2431 669 2431 922 
Q 2431 1156 2273 1281 
Q 2116 1406 1581 1522 
L 1381 1569 
Q 847 1681 609 1914 
Q 372 2147 372 2553 
Q 372 3047 722 3315 
Q 1072 3584 1716 3584 
Q 2034 3584 2315 3537 
Q 2597 3491 2834 3397 
z
" transform="scale(0.015625)"/>
       </defs>
       <use xlink:href="#DejaVuSans-48"/>
       <use xlink:href="#DejaVuSans-75" x="75.195312"/>
       <use xlink:href="#DejaVuSans-6d" x="138.574219"/>
       <use xlink:href="#DejaVuSans-61" x="235.986328"/>
       <use xlink:href="#DejaVuSans-6e" x="297.265625"/>
       <use xlink:href="#DejaVuSans-20" x="360.644531"/>
       <use xlink:href="#DejaVuSans-53" x="392.431641"/>
       <use xlink:href="#DejaVuSans-63" x="455.908203"/>
       <use xlink:href="#DejaVuSans-6f" x="510.888672"/>
       <use xlink:href="#DejaVuSans-72" x="572.070312"/>
       <use xlink:href="#DejaVuSans-65" x="610.933594"/>
       <use xlink:href="#DejaVuSans-73" x="672.457031"/>
      </g>
     </g>
    </g>
    <g id="xtick_2">
     <g id="line2d_2">
      <g>
       <use xlink:href="#m6edf738820" x="404.851212" y="390.04" style="stroke: #000000; stroke-width: 0.8"/>
      </g>
     </g>
     <g id="text_2">
      <!-- AI Scores -->
      <g transform="translate(381.759806 404.638438) scale(0.1 -0.1)">
       <defs>
        <path id="DejaVuSans-41" d="M 2188 4044 
L 1331 1722 
L 3047 1722 
L 2188 4044 
z
M 1831 4666 
L 2547 4666 
L 4325 0 
L 3669 0 
L 3244 1197 
L 1141 1197 
L 716 0 
L 50 0 
L 1831 4666 
z
" transform="scale(0.015625)"/>
        <path id="DejaVuSans-49" d="M 628 4666 
L 1259 4666 
L 1259 0 
L 628 0 
L 628 4666 
z
" transform="scale(0.015625)"/>
       </defs>
       <use xlink:href="#DejaVuSans-41"/>
       <use xlink:href="#DejaVuSans-49" x="68.408203"/>
       <use xlink:href="#DejaVuSans-20" x="97.900391"/>
       <use xlink:href="#DejaVuSans-53" x="129.6875"/>
       <use xlink:href="#DejaVuSans-63" x="193.164062"/>
       <use xlink:href="#DejaVuSans-6f" x="248.144531"/>
       <use xlink:href="#DejaVuSans-72" x="309.326172"/>
       <use xlink:href="#DejaVuSans-65" x="348.189453"/>
       <use xlink:href="#DejaVuSans-73" x="409.712891"/>
      </g>
     </g>
    </g>
    <g id="text_3">
     <!-- Commiter -->
     <g transform="translate(244.157344 418.316562) scale(0.1 -0.1)">
      <defs>
       <path id="DejaVuSans-43" d="M 4122 4306 
L 4122 3641 
Q 3803 3938 3442 4084 
Q 3081 4231 2675 4231 
Q 1875 4231 1450 3742 
Q 1025 3253 1025 2328 
Q 1025 1406 1450 917 
Q 1875 428 2675 428 
Q 3081 428 3442 575 
Q 3803 722 4122 1019 
L 4122 359 
Q 3791 134 3420 21 
Q 3050 -91 2638 -91 
Q 1578 -91 968 557 
Q 359 1206 359 2328 
Q 359 3453 968 4101 
Q 1578 4750 2638 4750 
Q 3056 4750 3426 4639 
Q 3797 4528 4122 4306 
z
" transform="scale(0.015625)"/>
       <path id="DejaVuSans-69" d="M 603 3500 
L 1178 3500 
L 1178 0 
L 603 0 
L 603 3500 
z
M 603 4863 
L 1178 4863 
L 1178 4134 
L 603 4134 
L 603 4863 
z
" transform="scale(0.015625)"/>
       <path id="DejaVuSans-74" d="M 1172 4494 
L 1172 3500 
L 2356 3500 
L 2356 3053 
L 1172 3053 
L 1172 1153 
Q 1172 725 1289 603 
Q 1406 481 1766 481 
L 2356 481 
L 2356 0 
L 1766 0 
Q 1100 0 847 248 
Q 594 497 594 1153 
L 594 3053 
L 172 3053 
L 172 3500 
L 594 3500 
L 594 4494 
L 1172 4494 
z
" transform="scale(0.015625)"/>
      </defs>
      <use xlink:href="#DejaVuSans-43"/>
      <use xlink:href="#DejaVuSans-6f" x="69.824219"/>
      <use xlink:href="#DejaVuSans-6d" x="131.005859"/>
      <use xlink:href="#DejaVuSans-6d" x="228.417969"/>
      <use xlink:href="#DejaVuSans-69" x="325.830078"/>
      <use xlink:href="#DejaVuSans-74" x="353.613281"/>
      <use xlink:href="#DejaVuSans-65" x="392.822266"/>
      <use xlink:href="#DejaVuSans-72" x="454.345703"/>
     </g>
    </g>
   </g>
   <g id="matplotlib.axis_2">
    <g id="ytick_1">
     <g id="line2d_3">
      <defs>
       <path id="ma40749de07" d="M 0 0 
L -3.5 0 
" style="stroke: #000000; stroke-width: 0.8"/>
      </defs>
      <g>
       <use xlink:href="#ma40749de07" x="44.66" y="373.467273" style="stroke: #000000; stroke-width: 0.8"/>
      </g>
     </g>
     <g id="text_4">
      <!-- 8 -->
      <g transform="translate(31.2975 377.266491) scale(0.1 -0.1)">
       <defs>
        <path id="DejaVuSans-38" d="M 2034 2216 
Q 1584 2216 1326 1975 
Q 1069 1734 1069 1313 
Q 1069 891 1326 650 
Q 1584 409 2034 409 
Q 2484 409 2743 651 
Q 3003 894 3003 1313 
Q 3003 1734 2745 1975 
Q 2488 2216 2034 2216 
z
M 1403 2484 
Q 997 2584 770 2862 
Q 544 3141 544 3541 
Q 544 4100 942 4425 
Q 1341 4750 2034 4750 
Q 2731 4750 3128 4425 
Q 3525 4100 3525 3541 
Q 3525 3141 3298 2862 
Q 3072 2584 2669 2484 
Q 3125 2378 3379 2068 
Q 3634 1759 3634 1313 
Q 3634 634 3220 271 
Q 2806 -91 2034 -91 
Q 1263 -91 848 271 
Q 434 634 434 1313 
Q 434 1759 690 2068 
Q 947 2378 1403 2484 
z
M 1172 3481 
Q 1172 3119 1398 2916 
Q 1625 2713 2034 2713 
Q 2441 2713 2670 2916 
Q 2900 3119 2900 3481 
Q 2900 3844 2670 4047 
Q 2441 4250 2034 4250 
Q 1625 4250 1398 4047 
Q 1172 3844 1172 3481 
z
" transform="scale(0.015625)"/>
       </defs>
       <use xlink:href="#DejaVuSans-38"/>
      </g>
     </g>
    </g>
    <g id="ytick_2">
     <g id="line2d_4">
      <g>
       <use xlink:href="#ma40749de07" x="44.66" y="318.224848" style="stroke: #000000; stroke-width: 0.8"/>
      </g>
     </g>
     <g id="text_5">
      <!-- 10 -->
      <g transform="translate(24.935 322.024067) scale(0.1 -0.1)">
       <defs>
        <path id="DejaVuSans-31" d="M 794 531 
L 1825 531 
L 1825 4091 
L 703 3866 
L 703 4441 
L 1819 4666 
L 2450 4666 
L 2450 531 
L 3481 531 
L 3481 0 
L 794 0 
L 794 531 
z
" transform="scale(0.015625)"/>
        <path id="DejaVuSans-30" d="M 2034 4250 
Q 1547 4250 1301 3770 
Q 1056 3291 1056 2328 
Q 1056 1369 1301 889 
Q 1547 409 2034 409 
Q 2525 409 2770 889 
Q 3016 1369 3016 2328 
Q 3016 3291 2770 3770 
Q 2525 4250 2034 4250 
z
M 2034 4750 
Q 2819 4750 3233 4129 
Q 3647 3509 3647 2328 
Q 3647 1150 3233 529 
Q 2819 -91 2034 -91 
Q 1250 -91 836 529 
Q 422 1150 422 2328 
Q 422 3509 836 4129 
Q 1250 4750 2034 4750 
z
" transform="scale(0.015625)"/>
       </defs>
       <use xlink:href="#DejaVuSans-31"/>
       <use xlink:href="#DejaVuSans-30" x="63.623047"/>
      </g>
     </g>
    </g>
    <g id="ytick_3">
     <g id="line2d_5">
      <g>
       <use xlink:href="#ma40749de07" x="44.66" y="262.982424" style="stroke: #000000; stroke-width: 0.8"/>
      </g>
     </g>
     <g id="text_6">
      <!-- 12 -->
      <g transform="translate(24.935 266.781643) scale(0.1 -0.1)">
       <defs>
        <path id="DejaVuSans-32" d="M 1228 531 
L 3431 531 
L 3431 0 
L 469 0 
L 469 531 
Q 828 903 1448 1529 
Q 2069 2156 2228 2338 
Q 2531 2678 2651 2914 
Q 2772 3150 2772 3378 
Q 2772 3750 2511 3984 
Q 2250 4219 1831 4219 
Q 1534 4219 1204 4116 
Q 875 4013 500 3803 
L 500 4441 
Q 881 4594 1212 4672 
Q 1544 4750 1819 4750 
Q 2544 4750 2975 4387 
Q 3406 4025 3406 3419 
Q 3406 3131 3298 2873 
Q 3191 2616 2906 2266 
Q 2828 2175 2409 1742 
Q 1991 1309 1228 531 
z
" transform="scale(0.015625)"/>
       </defs>
       <use xlink:href="#DejaVuSans-31"/>
       <use xlink:href="#DejaVuSans-32" x="63.623047"/>
      </g>
     </g>
    </g>
    <g id="ytick_4">
     <g id="line2d_6">
      <g>
       <use xlink:href="#ma40749de07" x="44.66" y="207.74" style="stroke: #000000; stroke-width: 0.8"/>
      </g>
     </g>
     <g id="text_7">
      <!-- 14 -->
      <g transform="translate(24.935 211.539219) scale(0.1 -0.1)">
       <defs>
        <path id="DejaVuSans-34" d="M 2419 4116 
L 825 1625 
L 2419 1625 
L 2419 4116 
z
M 2253 4666 
L 3047 4666 
L 3047 1625 
L 3713 1625 
L 3713 1100 
L 3047 1100 
L 3047 0 
L 2419 0 
L 2419 1100 
L 313 1100 
L 313 1709 
L 2253 4666 
z
" transform="scale(0.015625)"/>
       </defs>
       <use xlink:href="#DejaVuSans-31"/>
       <use xlink:href="#DejaVuSans-34" x="63.623047"/>
      </g>
     </g>
    </g>
    <g id="ytick_5">
     <g id="line2d_7">
      <g>
       <use xlink:href="#ma40749de07" x="44.66" y="152.497576" style="stroke: #000000; stroke-width: 0.8"/>
      </g>
     </g>
     <g id="text_8">
      <!-- 16 -->
      <g transform="translate(24.935 156.296795) scale(0.1 -0.1)">
       <defs>
        <path id="DejaVuSans-36" d="M 2113 2584 
Q 1688 2584 1439 2293 
Q 1191 2003 1191 1497 
Q 1191 994 1439 701 
Q 1688 409 2113 409 
Q 2538 409 2786 701 
Q 3034 994 3034 1497 
Q 3034 2003 2786 2293 
Q 2538 2584 2113 2584 
z
M 3366 4563 
L 3366 3988 
Q 3128 4100 2886 4159 
Q 2644 4219 2406 4219 
Q 1781 4219 1451 3797 
Q 1122 3375 1075 2522 
Q 1259 2794 1537 2939 
Q 1816 3084 2150 3084 
Q 2853 3084 3261 2657 
Q 3669 2231 3669 1497 
Q 3669 778 3244 343 
Q 2819 -91 2113 -91 
Q 1303 -91 875 529 
Q 447 1150 447 2328 
Q 447 3434 972 4092 
Q 1497 4750 2381 4750 
Q 2619 4750 2861 4703 
Q 3103 4656 3366 4563 
z
" transform="scale(0.015625)"/>
       </defs>
       <use xlink:href="#DejaVuSans-31"/>
       <use xlink:href="#DejaVuSans-36" x="63.623047"/>
      </g>
     </g>
    </g>
    <g id="ytick_6">
     <g id="line2d_8">
      <g>
       <use xlink:href="#ma40749de07" x="44.66" y="97.255152" style="stroke: #000000; stroke-width: 0.8"/>
      </g>
     </g>
     <g id="text_9">
      <!-- 18 -->
      <g transform="translate(24.935 101.05437) scale(0.1 -0.1)">
       <use xlink:href="#DejaVuSans-31"/>
       <use xlink:href="#DejaVuSans-38" x="63.623047"/>
      </g>
     </g>
    </g>
    <g id="ytick_7">
     <g id="line2d_9">
      <g>
       <use xlink:href="#ma40749de07" x="44.66" y="42.012727" style="stroke: #000000; stroke-width: 0.8"/>
      </g>
     </g>
     <g id="text_10">
      <!-- 20 -->
      <g transform="translate(24.935 45.811946) scale(0.1 -0.1)">
       <use xlink:href="#DejaVuSans-32"/>
       <use xlink:href="#DejaVuSans-30" x="63.623047"/>
      </g>
     </g>
    </g>
    <g id="text_11">
     <!-- Scores -->
     <g transform="translate(18.855313 224.347031) rotate(-90) scale(0.1 -0.1)">
      <use xlink:href="#DejaVuSans-53"/>
      <use xlink:href="#DejaVuSans-63" x="63.476562"/>
      <use xlink:href="#DejaVuSans-6f" x="118.457031"/>
      <use xlink:href="#DejaVuSans-72" x="179.638672"/>
      <use xlink:href="#DejaVuSans-65" x="218.501953"/>
      <use xlink:href="#DejaVuSans-73" x="280.025391"/>
     </g>
    </g>
   </g>
   <g id="LineCollection_1">
    <path d="M 99.028485 299.810707 
L 166.989091 299.810707 
" clip-path="url(#p7416c00b6a)" style="fill: none; stroke: #1f77b4; stroke-width: 1.5"/>
    <path d="M 370.870909 134.083434 
L 438.831515 134.083434 
" clip-path="url(#p7416c00b6a)" style="fill: none; stroke: #1f77b4; stroke-width: 1.5"/>
   </g>
   <g id="LineCollection_2">
    <path d="M 99.028485 42.012727 
L 166.989091 42.012727 
" clip-path="url(#p7416c00b6a)" style="fill: none; stroke: #1f77b4; stroke-width: 1.5"/>
    <path d="M 370.870909 97.255152 
L 438.831515 97.255152 
" clip-path="url(#p7416c00b6a)" style="fill: none; stroke: #1f77b4; stroke-width: 1.5"/>
   </g>
   <g id="LineCollection_3">
    <path d="M 99.028485 373.467273 
L 166.989091 373.467273 
" clip-path="url(#p7416c00b6a)" style="fill: none; stroke: #1f77b4; stroke-width: 1.5"/>
    <path d="M 370.870909 152.497576 
L 438.831515 152.497576 
" clip-path="url(#p7416c00b6a)" style="fill: none; stroke: #1f77b4; stroke-width: 1.5"/>
   </g>
   <g id="LineCollection_4">
    <path d="M 133.008788 373.467273 
L 133.008788 42.012727 
" clip-path="url(#p7416c00b6a)" style="fill: none; stroke: #1f77b4; stroke-width: 1.5"/>
    <path d="M 404.851212 152.497576 
L 404.851212 97.255152 
" clip-path="url(#p7416c00b6a)" style="fill: none; stroke: #1f77b4; stroke-width: 1.5"/>
   </g>
   <g id="LineCollection_5">
    <path d="M 99.028485 318.224848 
L 166.989091 318.224848 
" clip-path="url(#p7416c00b6a)" style="fill: none; stroke: #1f77b4; stroke-width: 1.5"/>
    <path d="M 370.870909 152.497576 
L 438.831515 152.497576 
" clip-path="url(#p7416c00b6a)" style="fill: none; stroke: #1f77b4; stroke-width: 1.5"/>
   </g>
   <g id="patch_3">
    <path d="M 44.66 390.04 
L 44.66 25.44 
" style="fill: none; stroke: #000000; stroke-width: 0.8; stroke-linejoin: miter; stroke-linecap: square"/>
   </g>
   <g id="patch_4">
    <path d="M 493.2 390.04 
L 493.2 25.44 
" style="fill: none; stroke: #000000; stroke-width: 0.8; stroke-linejoin: miter; stroke-linecap: square"/>
   </g>
   <g id="patch_5">
    <path d="M 44.66 390.04 
L 493.2 390.04 
" style="fill: none; stroke: #000000; stroke-width: 0.8; stroke-linejoin: miter; stroke-linecap: square"/>
   </g>
   <g id="patch_6">
    <path d="M 44.66 25.44 
L 493.2 25.44 
" style="fill: none; stroke: #000000; stroke-width: 0.8; stroke-linejoin: miter; stroke-linecap: square"/>
   </g>
   <g id="text_12">
    <!-- Comparison of Human and AI Scores -->
    <g transform="translate(158.958438 19.44) scale(0.12 -0.12)">
     <defs>
      <path id="DejaVuSans-70" d="M 1159 525 
L 1159 -1331 
L 581 -1331 
L 581 3500 
L 1159 3500 
L 1159 2969 
Q 1341 3281 1617 3432 
Q 1894 3584 2278 3584 
Q 2916 3584 3314 3078 
Q 3713 2572 3713 1747 
Q 3713 922 3314 415 
Q 2916 -91 2278 -91 
Q 1894 -91 1617 61 
Q 1341 213 1159 525 
z
M 3116 1747 
Q 3116 2381 2855 2742 
Q 2594 3103 2138 3103 
Q 1681 3103 1420 2742 
Q 1159 2381 1159 1747 
Q 1159 1113 1420 752 
Q 1681 391 2138 391 
Q 2594 391 2855 752 
Q 3116 1113 3116 1747 
z
" transform="scale(0.015625)"/>
      <path id="DejaVuSans-66" d="M 2375 4863 
L 2375 4384 
L 1825 4384 
Q 1516 4384 1395 4259 
Q 1275 4134 1275 3809 
L 1275 3500 
L 2222 3500 
L 2222 3053 
L 1275 3053 
L 1275 0 
L 697 0 
L 697 3053 
L 147 3053 
L 147 3500 
L 697 3500 
L 697 3744 
Q 697 4328 969 4595 
Q 1241 4863 1831 4863 
L 2375 4863 
z
" transform="scale(0.015625)"/>
      <path id="DejaVuSans-64" d="M 2906 2969 
L 2906 4863 
L 3481 4863 
L 3481 0 
L 2906 0 
L 2906 525 
Q 2725 213 2448 61 
Q 2172 -91 1784 -91 
Q 1150 -91 751 415 
Q 353 922 353 1747 
Q 353 2572 751 3078 
Q 1150 3584 1784 3584 
Q 2172 3584 2448 3432 
Q 2725 3281 2906 2969 
z
M 947 1747 
Q 947 1113 1208 752 
Q 1469 391 1925 391 
Q 2381 391 2643 752 
Q 2906 1113 2906 1747 
Q 2906 2381 2643 2742 
Q 2381 3103 1925 3103 
Q 1469 3103 1208 2742 
Q 947 2381 947 1747 
z
" transform="scale(0.015625)"/>
     </defs>
     <use xlink:href="#DejaVuSans-43"/>
     <use xlink:href="#DejaVuSans-6f" x="69.824219"/>
     <use xlink:href="#DejaVuSans-6d" x="131.005859"/>
     <use xlink:href="#DejaVuSans-70" x="228.417969"/>
     <use xlink:href="#DejaVuSans-61" x="291.894531"/>
     <use xlink:href="#DejaVuSans-72" x="353.173828"/>
     <use xlink:href="#DejaVuSans-69" x="394.287109"/>
     <use xlink:href="#DejaVuSans-73" x="422.070312"/>
     <use xlink:href="#DejaVuSans-6f" x="474.169922"/>
     <use xlink:href="#DejaVuSans-6e" x="535.351562"/>
     <use xlink:href="#DejaVuSans-20" x="598.730469"/>
     <use xlink:href="#DejaVuSans-6f" x="630.517578"/>
     <use xlink:href="#DejaVuSans-66" x="691.699219"/>
     <use xlink:href="#DejaVuSans-20" x="726.904297"/>
     <use xlink:href="#DejaVuSans-48" x="758.691406"/>
     <use xlink:href="#DejaVuSans-75" x="833.886719"/>
     <use xlink:href="#DejaVuSans-6d" x="897.265625"/>
     <use xlink:href="#DejaVuSans-61" x="994.677734"/>
     <use xlink:href="#DejaVuSans-6e" x="1055.957031"/>
     <use xlink:href="#DejaVuSans-20" x="1119.335938"/>
     <use xlink:href="#DejaVuSans-61" x="1151.123047"/>
     <use xlink:href="#DejaVuSans-6e" x="1212.402344"/>
     <use xlink:href="#DejaVuSans-64" x="1275.78125"/>
     <use xlink:href="#DejaVuSans-20" x="1339.257812"/>
     <use xlink:href="#DejaVuSans-41" x="1371.044922"/>
     <use xlink:href="#DejaVuSans-49" x="1439.453125"/>
     <use xlink:href="#DejaVuSans-20" x="1468.945312"/>
     <use xlink:href="#DejaVuSans-53" x="1500.732422"/>
     <use xlink:href="#DejaVuSans-63" x="1564.208984"/>
     <use xlink:href="#DejaVuSans-6f" x="1619.189453"/>
     <use xlink:href="#DejaVuSans-72" x="1680.371094"/>
     <use xlink:href="#DejaVuSans-65" x="1719.234375"/>
     <use xlink:href="#DejaVuSans-73" x="1780.757812"/>
    </g>
   </g>
  </g>
 </g>
 <defs>
  <clipPath id="p7416c00b6a">
   <rect x="44.66" y="25.44" width="448.54" height="364.6"/>
  </clipPath>
 </defs>
</svg>
